<?xml version="1.0" encoding="UTF-8"?>
<!-- Generator: visioncortex VTracer 0.6.12 -->
<svg version="1.1" xmlns="http://www.w3.org/2000/svg" width="1086" height="1033">
<path d="M0 0 C3.1608 4.7411 2.6329 9.4536 2 15 C0.7467 19.2278 -1.018 23.0675 -3 27 C-3.446 27.9049 -3.892 28.8098 -4.3516 29.7422 C-10.7543 42.0827 -19.3919 53.1374 -28 64 C-28.5058 64.6387 -29.0116 65.2775 -29.5327 65.9355 C-35.954 74.0125 -42.5351 81.8528 -49.5781 89.3945 C-51.647 91.6202 -53.6486 93.8802 -55.625 96.1875 C-58.8499 99.9139 -62.3293 103.345 -65.8359 106.8047 C-67.6932 108.6888 -69.4198 110.605 -71.125 112.625 C-78.7368 121.4846 -87.2569 129.8662 -96.1797 137.3984 C-98.3869 139.3404 -100.4354 141.4074 -102.5 143.5 C-105.7885 146.8277 -109.1638 149.9534 -112.7148 152.9961 C-115.6394 155.5607 -118.4701 158.22 -121.3125 160.875 C-126.2228 165.4564 -131.2581 169.7433 -136.5625 173.8672 C-142.9945 179.4952 -146.4577 186.1551 -150.3125 193.6875 C-150.598 194.2428 -150.598 194.2428 -152.043 197.0527 C-173.4463 239.1573 -173.4463 239.1573 -170 253 C-168.7266 254.7578 -168.7266 254.7578 -167 256 C-159.2016 257.0022 -152.6469 252.6539 -146.6328 248.2773 C-134.5115 238.8475 -122.9453 228.0164 -112.9922 216.3203 C-111.4636 214.54 -109.8994 212.7903 -108.3203 211.0547 C-100.5721 202.4477 -94.4157 193.2355 -88.4229 183.3442 C-86.2297 179.7309 -83.9907 176.1465 -81.75 172.5625 C-81.3464 171.9148 -80.9429 171.2672 -80.5271 170.5999 C-70.4093 154.4093 -70.4093 154.4093 -68 152 C-66.5113 151.9133 -65.0186 151.893 -63.5273 151.9023 C-62.6282 151.9056 -61.7291 151.9088 -60.8027 151.9121 C-59.8572 151.9205 -58.9117 151.9289 -57.9375 151.9375 C-56.9881 151.942 -56.0387 151.9465 -55.0605 151.9512 C-52.707 151.963 -50.3535 151.9795 -48 152 C-48 155.8628 -48.0295 156.5478 -49.9141 159.5547 C-50.1261 159.8975 -50.1261 159.8975 -51.199 161.6323 C-51.6696 162.3724 -52.1402 163.1125 -52.625 163.875 C-53.1143 164.6602 -53.6036 165.4454 -54.1077 166.2544 C-58.593 173.4284 -63.1707 180.5447 -67.7261 187.6743 C-99.2153 237.091 -99.2153 237.091 -100 252 C-99.67 252.99 -99.34 253.98 -99 255 C-93.3719 256.6751 -90.2301 254.7033 -85.2422 252.0508 C-80.1204 248.8111 -75.8395 244.8031 -71.5605 240.5503 C-69.9458 238.9461 -68.3104 237.3651 -66.6719 235.7852 C-59.9303 229.2295 -53.7848 222.4257 -48 215 C-46.8965 213.6128 -45.7923 212.2261 -44.6875 210.8398 C-35.9133 199.7696 -28.0406 188.3793 -20.4844 176.457 C-20.1756 175.9702 -20.1756 175.9702 -18.6133 173.5068 C-17.4033 171.5948 -16.1973 169.6802 -14.9961 167.7627 C-13.8804 165.9923 -12.7507 164.2307 -11.606 162.479 C-10.5651 160.8722 -9.5629 159.2394 -8.6089 157.5796 C-5.3376 152.3532 -5.3376 152.3532 -1.6562 151.3811 C1.0676 151.2121 3.6541 151.2982 6.375 151.5 C7.3018 151.5361 8.2287 151.5722 9.1836 151.6094 C11.4601 151.7032 13.7278 151.8343 16 152 C15.5265 157.3136 12.6542 161.0935 9.8125 165.4375 C9.5448 165.8542 9.5448 165.8542 8.1902 167.9631 C6.4663 170.6461 4.7331 173.323 3 176 C-37.2565 238.5582 -37.2565 238.5582 -37.0625 251.75 C-37.058 252.1496 -37.058 252.1496 -37.0352 254.1719 C-37.0236 254.7752 -37.012 255.3784 -37 256 C-25.0342 255.7742 -16.9962 247.4931 -9.061 239.3999 C-4.0561 234.177 0.5742 228.7227 5 223 C5.7863 222.0074 6.5727 221.0148 7.3828 219.9922 C14.6504 210.7623 21.2209 201.0838 27.7881 191.3496 C53.8004 152.8079 53.8004 152.8079 65 149 C70.0347 148.3397 73.7893 148.3946 78.375 150.6875 C85.0262 156.5469 87.1547 162.2652 88 171 C88.0753 175.0016 88.0591 178.9983 88 183 C88.6664 182.2382 89.3329 181.4763 90.0195 180.6914 C96.1919 173.7378 102.6063 167.6814 110 162 C110.6755 161.447 111.3509 160.894 112.0469 160.3242 C119.1517 154.6433 128.3877 148.8027 137.6875 148.9375 C138.4957 148.9465 139.304 148.9555 140.1367 148.9648 C140.4442 148.9706 140.4442 148.9706 142 149 C142.66 150.32 143.32 151.64 144 153 C143.6971 153.1154 143.6971 153.1154 142.1641 153.6992 C127.4071 159.4431 115.8336 167.2464 104.1758 178.0117 C102.43 179.6071 100.6671 181.0994 98.8125 182.5625 C95.7292 185.2347 93.1517 188.1254 90.5156 191.2305 C89 193 89 193 87 195 C86.3863 197.8423 85.8763 200.6304 85.4375 203.5 C85.3118 204.2657 85.1861 205.0314 85.0566 205.8203 C83.3708 216.377 82.7941 226.7466 82.75 237.4375 C82.7294 238.6834 82.7088 239.9293 82.6875 241.2129 C82.6127 259.0338 82.6127 259.0338 87.9131 265.24 C90.9987 267.8423 92.9679 268 97 268 C111.475 264.5211 122.2111 251.7546 130.75 240.3125 C131.3133 239.5668 131.8766 238.8211 132.457 238.0527 C133.9767 236.0391 135.4896 234.0206 137 232 C137.9998 230.6665 138.9998 229.3332 140 228 C140.99 228.33 141.98 228.66 143 229 C136.2027 247.1047 119.5485 264.9644 102.0938 273.125 C95.9533 275.6911 89.662 276.1666 83.2656 274.1289 C75.6012 270.587 71.0995 265.9637 67.75 258.25 C64.3244 248.5588 63.7502 239.5159 64.375 229.3125 C64.4317 228.2174 64.4884 227.1224 64.5469 225.9941 C64.6866 223.3286 64.8378 220.6643 65 218 C63.3113 219.8322 61.6237 221.6655 59.9375 223.5 C59.6849 223.7748 59.6849 223.7748 58.4067 225.1653 C55.6839 228.1357 52.9992 231.129 50.375 234.1875 C39.8383 246.2366 24.7604 262.3884 7.9648 264.3555 C5.6034 264.3721 3.3422 264.2855 1 264 C0.34 262.68 -0.32 261.36 -1 260 C-0.0925 259.6288 0.815 259.2575 1.75 258.875 C3.1695 258.2565 4.5857 257.6304 6 257 C6.8843 256.6094 7.7686 256.2188 8.6797 255.8164 C29.851 245.9046 56.7795 222.6334 68 202 C68.7078 199.3154 68.7078 199.3154 69.168 196.4219 C69.2536 195.8863 69.2536 195.8863 69.687 193.176 C69.8522 192.0454 70.0173 190.9148 70.1875 189.75 C70.3604 188.593 70.5333 187.436 70.7114 186.2439 C74.1084 162.1625 74.1084 162.1625 70 156 C64.5398 155.8989 61.5186 156.9129 57.3125 160.4375 C47.4878 169.9302 40.2236 182.031 32.7383 193.3809 C-9.459 257.2893 -9.459 257.2893 -34 264 C-39.0303 264.6595 -42.8762 264.5721 -47.4375 262.25 C-51.3789 258.7893 -53.6536 255.9839 -54.2734 250.6445 C-54.6061 241.3694 -52.0641 233.6233 -49 225 C-49.7361 225.8082 -50.4721 226.6165 -51.2305 227.4492 C-52.2161 228.5287 -53.2018 229.6081 -54.1875 230.6875 C-54.6703 231.2179 -55.153 231.7484 -55.6504 232.2949 C-58.687 235.6168 -61.8092 238.8245 -65 242 C-65.7928 242.8508 -66.5855 243.7016 -67.4023 244.5781 C-75.2119 252.8088 -85.9674 262.8693 -97.6836 264.3359 C-103.6505 264.4206 -107.3653 264.1713 -112 260 C-116.4019 254.991 -116.3257 250.1284 -116.2969 243.7031 C-115.8019 237.5293 -113.9032 231.8626 -112 226 C-111.6519 224.6704 -111.311 223.3387 -111 222 C-111.7734 222.8456 -112.5469 223.6912 -113.3438 224.5625 C-148.2779 262.6643 -148.2779 262.6643 -166.8047 264.2383 C-173.0545 264.3894 -177.1869 264.4521 -182 260 C-187.4194 254.1412 -187.3253 248.9894 -187.3008 241.2383 C-186.9314 233.3679 -184.8234 225.6353 -183 218 C-183.4136 218.4803 -183.8273 218.9605 -184.2534 219.4553 C-221.2619 262.2897 -221.2619 262.2897 -240.332 264.2383 C-246.5071 264.423 -250.0781 263.8391 -255 260 C-259.6916 254.5866 -259.6338 249.1611 -259.4727 242.1562 C-258.884 235.1532 -256.411 228.5526 -254 222 C-254.7838 222.99 -255.5675 223.98 -256.375 225 C-257.2413 225.99 -258.1075 226.98 -259 228 C-259.66 228 -260.32 228 -261 228 C-261.2179 228.5427 -261.4357 229.0854 -261.6602 229.6445 C-263.4533 232.797 -265.8705 235.1676 -268.4375 237.6875 C-268.9739 238.2164 -269.5103 238.7453 -270.063 239.2903 C-277.261 246.2988 -284.9058 252.4435 -293.3125 257.9375 C-293.8873 258.3154 -294.462 258.6934 -295.0542 259.0828 C-302.2513 263.6537 -308.6102 264.7877 -317 264 C-322.2507 262.2816 -324.3192 259.7658 -327 255 C-327.9735 252.0796 -328.1968 250.0504 -328.25 247 C-328.2758 246.1337 -328.3016 245.2675 -328.3281 244.375 C-327.8461 239.417 -326.4059 234.7669 -325 230 C-325.5378 230.5587 -326.0756 231.1175 -326.6296 231.6931 C-357.8107 263.9254 -357.8107 263.9254 -375.1875 264.3125 C-381.0106 264.2477 -385.3953 263.71 -390 260 C-395.2198 254.5928 -397.0344 248.4281 -397.375 241 C-397.1423 229.7041 -393.0566 218.9681 -388 209 C-389.155 209.0825 -390.31 209.165 -391.5 209.25 C-397.7398 209.239 -402.614 206.5865 -407 202.25 C-407.33 201.8787 -407.33 201.8787 -409 200 C-409.1283 200.2726 -409.1283 200.2726 -409.7773 201.6523 C-416.6387 214.8271 -426.9052 226.2281 -437 237 C-437.5066 237.5459 -438.0132 238.0918 -438.5352 238.6543 C-450.2757 251.2136 -464.0989 263.7971 -482.125 264.5625 C-488.2838 264.3684 -492.5265 263.327 -497 259 C-502.9113 251.4213 -502.8678 243.2238 -502 234 C-501.1024 229.2094 -499.6083 224.5953 -498 220 C-498.8482 220.9204 -499.6964 221.8408 -500.5703 222.7891 C-504.3557 226.8825 -508.1715 230.9468 -512 235 C-512.5925 235.6294 -513.185 236.2588 -513.7954 236.9072 C-539.2132 263.7287 -539.2132 263.7287 -556.25 264.4375 C-561.7789 264.1775 -565.3516 262.6942 -569.25 258.6875 C-573.6443 251.939 -573.804 245.366 -572.3828 237.6484 C-570.1628 228.3165 -566.4997 220.1845 -561.9521 211.7661 C-561.1396 210.2589 -560.3523 208.7382 -559.5703 207.2148 C-555.1144 198.6853 -549.7998 190.6546 -544.623 182.5522 C-542.9914 179.9865 -541.3761 177.4112 -539.7656 174.832 C-539.2392 173.9909 -538.7128 173.1498 -538.1704 172.2832 C-537.1729 170.6884 -536.1776 169.0921 -535.1851 167.4941 C-527.9254 155.9254 -527.9254 155.9254 -524 152 C-522.5113 151.9133 -521.0186 151.893 -519.5273 151.9023 C-518.6282 151.9056 -517.7291 151.9088 -516.8027 151.9121 C-515.8572 151.9205 -514.9117 151.9289 -513.9375 151.9375 C-512.9881 151.942 -512.0387 151.9465 -511.0605 151.9512 C-508.707 151.963 -506.3535 151.9795 -504 152 C-503.67 152.66 -503.34 153.32 -503 154 C-503.7217 155.6096 -503.7217 155.6096 -504.9219 157.5352 C-505.3643 158.2525 -505.8067 158.9699 -506.2625 159.709 C-506.7533 160.4856 -507.2442 161.2623 -507.75 162.0625 C-508.2544 162.874 -508.7589 163.6854 -509.2786 164.5215 C-512.5231 169.7192 -515.8423 174.8668 -519.1875 180 C-529.2086 195.388 -538.9489 210.9754 -547.8125 227.0625 C-548.2978 227.9354 -548.783 228.8084 -549.283 229.7078 C-553.2246 236.9882 -557.0174 244.5219 -556 253 C-554.9375 255 -554.9375 255 -553 256 C-543.9482 256.3852 -535.7792 249.7942 -529.3335 244.0303 C-526.5029 241.4065 -523.749 238.7088 -521 236 C-520.3439 235.3629 -519.6877 234.7258 -519.0117 234.0693 C-510.7917 226.0854 -503.0451 218.0479 -496 209 C-495.34 208.2304 -494.68 207.4609 -494 206.668 C-489.5894 201.4734 -486.1788 195.9927 -482.9268 190.0332 C-479.3992 183.6071 -475.6474 177.3252 -471.8242 171.072 C-471.1138 169.9083 -470.406 168.743 -469.7012 167.5759 C-468.6986 165.9173 -467.6854 164.2652 -466.6719 162.6133 C-466.085 161.652 -465.4982 160.6908 -464.8936 159.7004 C-459.8047 152.4431 -459.8047 152.4431 -455.6882 151.4324 C-454.9184 151.4586 -454.1486 151.4847 -453.3555 151.5117 C-452.5144 151.5278 -451.6732 151.5439 -450.8066 151.5605 C-449.9423 151.6024 -449.078 151.6443 -448.1875 151.6875 C-447.7457 151.6988 -447.7457 151.6988 -445.5098 151.7559 C-443.3391 151.8145 -441.1693 151.9042 -439 152 C-438 155 -438 155 -439.073 157.2263 C-439.6303 158.0888 -440.1876 158.9512 -440.7617 159.8398 C-441.0709 160.3249 -441.0709 160.3249 -442.6355 162.7798 C-442.9741 163.3008 -442.9741 163.3008 -444.6875 165.9375 C-446.0847 168.1307 -447.4805 170.3247 -448.875 172.5195 C-449.575 173.616 -450.2749 174.7125 -450.9961 175.8423 C-455.8313 183.4615 -460.4646 191.1991 -465 199 C-465.5172 199.8893 -466.0345 200.7786 -466.5674 201.6948 C-486.4766 236.2345 -486.4766 236.2345 -485 251 C-484.1211 253.7266 -484.1211 253.7266 -483 256 C-479.1948 257.9026 -475.0351 256.8682 -471 256 C-444.8474 246.1488 -422.978 213.9561 -411 190 C-410.807 188.1816 -410.6183 186.3626 -410.4561 184.5413 C-409.2748 171.7644 -406.37 158.1681 -398 148 C-395.8164 146.7383 -395.8164 146.7383 -394 146 C-390.2299 149.5268 -389.1479 151.5209 -388.625 156.75 C-388.8245 167.9753 -394.2372 178.2957 -400.1404 187.5452 C-402.0247 190.614 -402.9991 192.6411 -403.0078 196.2773 C-401.8284 199.4637 -401.0078 200.4594 -398 202 C-395.6328 202.3984 -395.6328 202.3984 -393.125 202.375 C-392.3026 202.3827 -391.4802 202.3905 -390.6328 202.3984 C-385.9085 201.6835 -382.8702 200.0109 -379.7539 196.3906 C-379.0307 195.3542 -378.3076 194.3178 -377.5625 193.25 C-362.8358 173.0892 -342.9121 157.4571 -319 150 C-318.358 149.7963 -317.7161 149.5927 -317.0547 149.3828 C-313.9085 148.7966 -310.8219 148.7883 -307.625 148.75 C-306.3385 148.7242 -305.052 148.6984 -303.7266 148.6719 C-298.2091 149.1577 -295.0913 150.8839 -291.25 154.8125 C-289.0652 157.9076 -288.0994 160.4171 -287 164 C-286.4341 163.2175 -285.8682 162.4351 -285.2852 161.6289 C-284.5517 160.617 -283.8182 159.6051 -283.0625 158.5625 C-282.6971 158.0578 -282.6971 158.0578 -280.8477 155.5039 C-279 153 -279 153 -278 152 C-276.5113 151.9133 -275.0186 151.893 -273.5273 151.9023 C-272.6282 151.9056 -271.7291 151.9088 -270.8027 151.9121 C-269.8572 151.9205 -268.9117 151.9289 -267.9375 151.9375 C-267.4628 151.9398 -267.4628 151.9398 -265.0605 151.9512 C-262.707 151.963 -260.3535 151.9795 -258 152 C-258.5763 155.9918 -259.797 158.6796 -261.957 162.0703 C-262.5687 163.039 -263.1804 164.0076 -263.8105 165.0056 C-264.4712 166.035 -265.1318 167.0644 -265.8125 168.125 C-266.1525 168.6619 -266.1525 168.6619 -267.873 171.3792 C-269.9081 174.5908 -271.9527 177.7961 -274 181 C-312.8638 241.9826 -312.8638 241.9826 -310 255 C-309.67 255.33 -309.34 255.66 -309 256 C-290.1569 255.0083 -273.5108 235.5916 -261.4805 222.3242 C-260.3504 221.0402 -259.2316 219.7463 -258.1211 218.4453 C-256.496 216.5718 -254.8463 214.7468 -253.1602 212.9297 C-244.369 203.3146 -237.5003 192.8728 -230.7065 181.7822 C-228.0038 177.3758 -225.2526 173.0003 -222.5 168.625 C-222.032 167.8712 -221.564 167.1174 -221.0818 166.3408 C-220.1875 164.9127 -219.2787 163.4936 -218.354 162.085 C-217.4231 160.6515 -216.5366 159.1884 -215.689 157.7041 C-212.3434 152.3583 -212.3434 152.3583 -208.6514 151.3735 C-205.9309 151.2123 -203.3421 151.2984 -200.625 151.5 C-199.6982 151.5361 -198.7713 151.5722 -197.8164 151.6094 C-195.5399 151.7032 -193.2722 151.8343 -191 152 C-191 156.0112 -191.1243 156.6877 -193.168 159.8086 C-193.405 160.1764 -193.405 160.1764 -194.6047 162.0376 C-195.127 162.8296 -195.6494 163.6215 -196.1875 164.4375 C-197.3004 166.1622 -198.4124 167.8874 -199.5234 169.6133 C-200.1006 170.5048 -200.6778 171.3964 -201.2725 172.3149 C-242.9539 237.099 -242.9539 237.099 -242 256 C-222.491 255.0968 -207.7051 237.2434 -195 224 C-193.2264 222.0445 -191.4926 220.0648 -189.7812 218.0547 C-188.4793 216.5529 -187.1405 215.0829 -185.7812 213.6328 C-185.0078 212.8052 -184.2344 211.9777 -183.4375 211.125 C-182.735 210.3851 -182.0324 209.6452 -181.3086 208.8828 C-175.2248 201.2858 -171.1306 192.4431 -166.8811 183.7403 C-160.0885 169.8628 -152.8493 156.3134 -145 143 C-144.4608 142.0827 -143.9217 141.1653 -143.3662 140.2202 C-129.8469 117.333 -115.1426 95.124 -99 74 C-98.7574 73.6816 -98.7574 73.6816 -97.5298 72.0703 C-28.314 -18.4041 -28.314 -18.4041 0 0 Z M-60.5596 50.1182 C-62.0572 52.0747 -63.5703 54.0184 -65.0859 55.9609 C-73.439 66.7119 -81.3039 77.7713 -89 89 C-89.4441 89.6461 -89.8882 90.2923 -90.3457 90.958 C-103.2735 109.8375 -115.0425 129.4832 -126.4302 149.3193 C-128.5454 152.9313 -130.7693 156.4739 -133.0115 160.0083 C-133.3377 160.6656 -133.6639 161.3228 -134 162 C-133.67 162.66 -133.34 163.32 -133 164 C-132.7938 163.7879 -132.7938 163.7879 -131.75 162.7148 C-128.6807 159.5976 -125.5785 156.5902 -122.25 153.75 C-117.9017 150.0084 -113.9105 145.9445 -109.9062 141.8438 C-107.7415 139.6736 -105.4807 137.6548 -103.1602 135.6523 C-98.9028 131.964 -94.9077 128.0558 -90.9375 124.0625 C-90.2691 123.398 -89.6007 122.7335 -88.9121 122.0488 C-84.9711 118.1002 -81.2363 114.0334 -77.592 109.8103 C-75.4984 107.4296 -73.2709 105.2111 -71 103 C-67.4521 99.4895 -64.0824 95.913 -60.8398 92.1211 C-58.631 89.5746 -56.3468 87.104 -54.0625 84.625 C-50.2659 80.4572 -46.6582 76.2049 -43.1797 71.7695 C-41.5571 69.7078 -39.9185 67.6673 -38.2578 65.6367 C-4.0444 23.6719 -4.0444 23.6719 -3.9922 8.7695 C-4.25 6.8125 -4.25 6.8125 -5 4 C-25.7455 0.6996 -49.4669 35.5789 -60.5596 50.1182 Z M-346.7305 183.2344 C-360.5774 200.1081 -381.8817 226.3591 -379.875 249.5 C-378.4615 255.1538 -378.4615 255.1538 -376 257 C-367.7894 258.3033 -361.8656 255.3744 -355 251 C-342.4056 241.8178 -331.5494 230.2343 -322 218 C-321.5021 217.3732 -321.0042 216.7464 -320.4912 216.1006 C-291.7347 179.874 -291.7347 179.874 -294 160 C-295.8969 157.3444 -297.1449 156.4276 -300 155 C-319.2451 152.9238 -335.109 169.9168 -346.7305 183.2344 Z " fill="#FAF8F3" transform="translate(931,586)"/>
<path d="M0 0 C14.892 14.3987 22.612 40.9911 23.168 61.2344 C23.1825 62.7395 23.1888 64.2448 23.1875 65.75 C23.1881 66.5442 23.1888 67.3384 23.1895 68.1567 C23.1425 73.4009 22.578 78.2578 21.4453 83.3867 C20.6209 88.2245 20.8464 93.1097 21 98 C28.0004 99.5379 34.268 99.7618 41 97 C39.4789 100.8719 37.4822 102.7511 34 105 C30.7109 106.1837 27.385 107.1324 24 108 C30.5385 121.2017 38.1824 131.5958 48.9336 141.8086 C52.0341 145.0967 53.0202 146.8917 52.9375 151.4375 C50.9814 158.8706 44.6533 161.6486 38.4258 165.4492 C36 167 36 167 34 169 C33.3099 173.8305 34.1272 176.5334 36.625 180.5625 C39.0301 184.6167 39.0301 184.6167 38.75 188.1875 C36.4237 191.9262 33.4917 194.3672 30 197 C30.495 197.6394 30.99 198.2788 31.5 198.9375 C33.498 203.0168 33.8968 206.533 33 211 C30.8125 213.375 30.8125 213.375 28 215 C23.0323 217.9355 23.0323 217.9355 22 220 C21.6497 225.2642 22.0182 230.4576 22.625 235.6875 C23.1304 241.1321 22.9846 245.3014 19.6211 249.875 C14.6297 255.4339 9.5125 257.6453 2.1145 258.2268 C-8.9995 258.4263 -19.3468 256.2642 -30.1758 253.9907 C-46.6175 250.5742 -63.4505 247.4484 -78.25 257.125 C-90.6278 270.0654 -92.5838 286.3918 -92.332 303.4492 C-91.5947 324.0905 -83.9652 344.2087 -72.2148 361.1016 C-71 363 -71 363 -71 365 C-90.0742 358.5594 -106.9786 336.5509 -117 320 C-117.3759 319.3883 -117.7518 318.7767 -118.1392 318.1465 C-133.0075 293.5486 -136.9883 263.2688 -130.5908 235.3364 C-127.0867 221.4792 -121.9719 208.4622 -115 196 C-114.6468 195.3637 -114.2936 194.7274 -113.9297 194.0718 C-108.6985 184.7503 -102.6896 176.3212 -96 168 C-95.3207 167.1273 -94.6413 166.2546 -93.9414 165.3555 C-89.7197 159.9616 -85.2395 154.8647 -80.5898 149.8359 C-78.5819 147.6372 -76.618 145.4171 -74.668 143.168 C-71.0166 138.9801 -67.2087 134.9578 -63.375 130.9375 C-35.1247 101.0568 -2.1817 63.2688 -0.6836 19.8242 C-0.6417 18.6673 -0.5998 17.5104 -0.5566 16.3184 C-0.5173 15.1202 -0.478 13.922 -0.4375 12.6875 C-0.4159 12.0787 -0.4159 12.0787 -0.3066 8.998 C-0.2008 5.9988 -0.0987 2.9995 0 0 Z " fill="#FAF8F3" transform="translate(707,126)"/>
<path d="M0 0 C1.6429 0.9059 3.2999 1.7862 4.9578 2.6646 C5.7918 3.1518 6.6258 3.6391 7.4851 4.1411 C9.9578 4.6646 9.9578 4.6646 12.9812 3.1372 C14.1085 2.3481 15.2252 1.5436 16.3328 0.7271 C28.5653 -7.6911 45.8911 -17.5205 61.2937 -14.9448 C63.1998 -14.4767 65.0825 -13.9151 66.9578 -13.3354 C66.6278 -12.0154 66.2978 -10.6954 65.9578 -9.3354 C65.1212 -9.3213 64.2846 -9.3071 63.4226 -9.2925 C45.6582 -8.5646 30.5347 -1.6325 16.9578 9.6646 C18.3509 12.9176 19.9074 14.6984 22.6453 16.9146 C26.8791 20.5175 30.4463 24.3616 33.9578 28.6646 C34.7312 29.6004 35.5046 30.5363 36.3015 31.5005 C61.1794 62.2665 69.6102 100.581 65.5593 139.4917 C62.757 158.6824 56.0487 175.6788 46.9578 192.6646 C46.3919 193.7254 45.826 194.7863 45.2429 195.8794 C38.6846 207.6226 30.1799 217.9136 20.9578 227.6646 C20.5601 228.0945 20.5601 228.0945 18.5476 230.27 C-16.069 266.453 -67.5573 285.6223 -117.0579 286.8677 C-141.9014 287.1806 -166.1799 284.1507 -189.8821 276.4185 C-195.7812 275.0111 -200.6343 277.1276 -206.168 279.0901 C-222.3839 284.8205 -237.0231 286.9303 -254.1672 287.1021 C-254.8882 287.1144 -255.6091 287.1268 -256.3519 287.1396 C-270.5015 287.341 -282.7502 285.6964 -294.3547 276.9146 C-296.7762 273.686 -297.3157 270.6034 -297.0422 266.6646 C-294.5046 259.6559 -289.6307 256.7744 -283.0422 253.6646 C-271.7574 249.4927 -258.5585 249.9899 -246.8547 251.7896 C-246.0096 251.9186 -245.1645 252.0477 -244.2937 252.1807 C-229.7889 254.5483 -215.4003 258.3278 -201.7844 263.8794 C-198.6197 264.7855 -197.1381 264.7422 -194.0422 263.6646 C-181.2769 255.8935 -169.4404 244.2143 -160.0422 232.6646 C-159.2082 231.7145 -158.3742 230.7645 -157.5149 229.7856 C-140.7742 210.3664 -127.0413 187.7076 -114.0422 165.6646 C-112.863 163.6799 -111.6833 161.6955 -110.5032 159.7114 C-105.1147 150.6399 -99.7441 141.558 -94.3925 132.4646 C-92.7267 129.636 -91.0575 126.8095 -89.3877 123.9832 C-88.591 122.6329 -87.7959 121.2816 -87.0024 119.9294 C-81.6708 110.8438 -76.0576 102.007 -70.143 93.2895 C-68.655 91.0929 -67.1855 88.884 -65.7141 86.6763 C-47.4454 59.5296 -26.0785 31.9157 0.2546 12.1255 C0.8167 11.6434 1.3787 11.1613 1.9578 10.6646 C1.9578 10.0046 1.9578 9.3446 1.9578 8.6646 C-42.9374 -17.5729 -92.8337 -21.9736 -143.0422 -9.3354 C-174.8891 -0.6702 -203.0915 15.0105 -227.0422 37.6646 C-227.9136 38.4715 -228.785 39.2785 -229.6829 40.1099 C-252.2817 61.7402 -270.5047 93.7984 -271.3279 125.5469 C-271.4908 140.671 -268.9506 154.3026 -258.5422 165.9146 C-247.43 176.2803 -233.3079 179.3697 -218.5774 178.9731 C-189.723 177.4818 -164.8396 159.397 -146.0422 138.6646 C-128.394 117.6721 -115.0234 93.3049 -107.9016 66.7856 C-107.0497 63.6915 -106.1873 60.6637 -105.0422 57.6646 C-104.3822 57.3346 -103.7222 57.0046 -103.0422 56.6646 C-102.3822 56.9946 -101.7222 57.3246 -101.0422 57.6646 C-100.3487 86.1626 -117.3645 115.296 -135.0422 136.6646 C-135.5195 137.2487 -135.9968 137.8328 -136.4885 138.4346 C-156.4731 162.8001 -183.1685 181.9765 -215.1985 185.4419 C-234.5556 186.5632 -250.5744 182.3421 -266.0618 170.3208 C-278.7465 159.0159 -284.2848 142.514 -285.261 125.9536 C-285.9151 98.2065 -275.5992 71.9797 -258.0422 50.6646 C-257.5791 50.0961 -257.116 49.5276 -256.6389 48.9419 C-250.3069 41.2014 -243.8149 34.0037 -236.0422 27.6646 C-235.4538 27.1816 -234.8653 26.6987 -234.259 26.2012 C-204.9792 2.3802 -170.0186 -12.4099 -133.0422 -19.3354 C-132.1956 -19.4992 -131.3491 -19.6629 -130.4768 -19.8315 C-85.9423 -28.0806 -39.6572 -21.8722 0 0 Z M9.9578 14.6646 C1.4527 22.7688 -6.0399 31.2349 -13.0422 40.6646 C-13.4568 41.2184 -13.8714 41.7722 -14.2986 42.3428 C-26.169 58.2782 -36.2401 75.4071 -46.0422 92.6646 C-46.5327 93.5247 -47.0232 94.3848 -47.5286 95.271 C-52.7059 104.3528 -57.8443 113.4547 -62.8625 122.6255 C-81.6682 156.9833 -100.9896 191.1892 -127.0422 220.6646 C-127.5163 221.2018 -127.9903 221.739 -128.4788 222.2925 C-143.2606 238.9307 -159.5998 252.4266 -178.3899 264.3169 C-181.032 265.9938 -183.5806 267.7272 -186.0422 269.6646 C-141.0546 284.6196 -93.3933 285.2803 -50.2627 263.9287 C-34.6828 255.9731 -21.5938 245.7659 -9.0422 233.6646 C-8.2159 232.9014 -7.3897 232.1383 -6.5383 231.3521 C25.3804 201.0216 46.6232 153.5839 48.2781 109.688 C49.0239 77.0321 41.6376 47.1164 19.5554 22.3638 C16.5518 19.2427 13.6621 16.8871 9.9578 14.6646 Z M-284.0422 264.6646 C-285.1047 268.1021 -285.1047 268.1021 -285.0422 271.6646 C-282.275 276.0828 -279.814 277.5162 -274.8547 278.9146 C-273.7887 279.2291 -272.7226 279.5436 -271.6243 279.8677 C-249.2398 284.8474 -227.0258 279.5143 -206.0422 271.6646 C-207.4338 268.8813 -208.8386 268.8459 -211.7571 267.8599 C-212.7442 267.5254 -213.7313 267.1908 -214.7483 266.8462 C-270.2837 248.6868 -270.2837 248.6868 -284.0422 264.6646 Z " fill="#FAF8F3" transform="translate(309.042236328125,576.33544921875)"/>
<path d="M0 0 C17.2482 6.8601 32.0837 39.7273 39.0664 55.5664 C51.7638 85.9143 55.1186 120.9913 42.8247 152.0537 C37.8238 163.8557 31.2578 174.2384 23 184 C22.1853 184.9668 21.3706 185.9336 20.5312 186.9297 C14.8867 193.378 8.7717 198.7702 2 204 C0.8861 204.8794 -0.2271 205.7597 -1.3398 206.6406 C-15.815 218 -15.815 218 -20 218 C-18.6762 214.5732 -17.1959 211.3012 -15.5312 208.0273 C3.2591 170.4591 14.286 131.2005 13 89 C12.9405 89.6212 12.8811 90.2423 12.8198 90.8823 C7.2004 147.5212 -16.2575 217.8093 -59 258 C-58.844 256.9352 -58.688 255.8705 -58.5273 254.7734 C-55.758 234.7041 -59.6153 217.5213 -65.5625 198.4375 C-76.0799 164.1857 -74.4315 130.4034 -57.8125 98.375 C-50.72 85.2247 -41.4776 73.535 -32.2957 61.8054 C-17.4024 42.7503 -4.4083 24.2689 0 0 Z " fill="#FAF8F3" transform="translate(588,12)"/>
<path d="M0 0 C15.1574 14.2844 25.4254 33.9553 26.6133 54.9219 C26.6787 57.6325 26.7252 60.3361 26.7383 63.0469 C26.743 63.7159 26.7476 64.3849 26.7524 65.0742 C26.7384 69.4645 26.32 73.6033 25.6133 77.9219 C22.374 76.8421 21.984 76.4286 20.1172 73.7812 C19.6473 73.1292 19.1775 72.4772 18.6934 71.8054 C18.1926 71.1014 17.6918 70.3973 17.1758 69.6719 C-3.3927 41.5598 -31.008 20.7302 -63.3867 7.9219 C-64.0467 7.9219 -64.7067 7.9219 -65.3867 7.9219 C-64.8949 8.1923 -64.4032 8.4626 -63.8965 8.7412 C-34.7266 24.897 -10.4471 45.8435 9.4258 72.6719 C9.8821 73.2858 10.3384 73.8997 10.8086 74.5322 C13.7228 78.5189 16.4061 82.4967 18.6133 86.9219 C18.2833 87.9119 17.9533 88.9019 17.6133 89.9219 C14.4264 90.571 11.2387 91.2156 8.0508 91.8594 C7.1555 92.0418 6.2603 92.2242 5.3379 92.4121 C-20.1708 97.5512 -44.8515 95.4553 -67.0117 80.7344 C-87.6981 65.6783 -99.8939 46.2269 -111.0742 23.5469 C-117.5651 10.4053 -124.9179 -4.1587 -137.7266 -12.3008 C-138.1655 -12.594 -138.1655 -12.594 -140.3867 -14.0781 C-140.3867 -14.7381 -140.3867 -15.3981 -140.3867 -16.0781 C-129.9695 -19.4677 -119.6161 -22.4468 -108.8242 -24.3906 C-107.9462 -24.5495 -107.0682 -24.7084 -106.1636 -24.8721 C-68.1709 -31.3818 -29.6724 -25.8359 0 0 Z " fill="#FAF8F3" transform="translate(483.38671875,219.078125)"/>
<path d="M0 0 C2.8902 2.8902 3.4564 6.4037 4.5 10.25 C4.7207 11.0598 4.9413 11.8695 5.1687 12.7039 C12.5275 40.5411 8.8438 68.5436 -5.2891 93.5938 C-22.0842 121.8004 -48.929 141.4276 -76.0238 158.9354 C-79.8571 161.4142 -83.6764 163.9143 -87.4961 166.4141 C-88.2401 166.9007 -88.9841 167.3873 -89.7507 167.8887 C-103.6241 176.9793 -117.1822 186.4618 -130 197 C-130.5582 197.4552 -131.1163 197.9104 -131.6914 198.3794 C-146.3493 210.3954 -159.925 223.5737 -171 239 C-171.4194 239.5804 -171.8389 240.1608 -172.271 240.7588 C-187.5383 262.1272 -200.0063 287.6551 -203 314 C-203.99 314 -204.98 314 -206 314 C-205.2208 282.4416 -205.2208 282.4416 -200 272 C-218.7425 278.0278 -234.8141 285.3486 -250 298 C-250.9952 298.785 -251.9903 299.5701 -253.0156 300.3789 C-256.2838 303.2492 -258.9069 306.2607 -261.5625 309.6875 C-261.8009 309.9921 -261.8009 309.9921 -263.0071 311.5337 C-266.7079 316.3745 -269.649 321.3628 -272 327 C-271.2382 326.0938 -270.4763 325.1876 -269.6914 324.2539 C-254.3905 306.1475 -235.8967 287.6584 -212 282 C-212.1284 282.6022 -212.2568 283.2045 -212.3892 283.825 C-213.4827 289.097 -214.359 294.3457 -215.0381 299.686 C-217.613 319.7592 -223.5787 336.4262 -240.0195 349.3789 C-248.5937 355.4641 -257.9458 358.8639 -267.8276 362.2476 C-276.1621 365.1344 -283.2403 368.3019 -290 374 C-290.495 374.3919 -290.495 374.3919 -293 376.375 C-293.33 376.6431 -293.33 376.6431 -295 378 C-303.5504 358.0251 -300.3078 331.5695 -293.25 311.625 C-285.6072 294.4582 -271.6412 280.7599 -254.3828 273.4727 C-250.9385 272.1949 -247.529 271.0207 -244 270 C-243.3568 269.8124 -242.7135 269.6247 -242.0508 269.4314 C-235.2272 267.6605 -228.5129 267.7392 -221.5 267.8125 C-220.9141 267.8128 -220.9141 267.8128 -217.9492 267.8145 C-211.554 267.8468 -205.3394 268.1534 -199 269 C-198.8763 268.3426 -198.7525 267.6852 -198.625 267.0078 C-192.9187 240.6873 -176.6316 216.956 -158.4453 197.6562 C-156 195 -156 195 -153.9102 192.3633 C-152.1615 190.1998 -150.4309 188.4773 -148.3125 186.6875 C-146.1943 184.8829 -144.0888 183.0819 -142.043 181.1953 C-124.9127 165.4079 -104.6468 153.33 -85 141 C-71.5672 132.5541 -58.3716 123.9539 -46 114 C-45.456 113.5657 -44.912 113.1315 -44.3516 112.6841 C-23.7666 96.1521 -7.3127 75.0632 -1 49 C-0.8234 48.2958 -0.6468 47.5915 -0.4648 46.866 C1.1625 39.7487 1.2988 32.8412 1.25 25.5625 C1.2577 24.412 1.2655 23.2615 1.2734 22.0762 C1.2586 15.5231 0.7391 9.4326 -0.6689 3.0271 C-0.7236 2.6926 -0.7236 2.6926 -1 1 C-0.67 0.67 -0.34 0.34 0 0 Z M-274 328 C-273 330 -273 330 -273 330 Z M-276 331 C-275 333 -275 333 -275 333 Z " fill="#FAF8F3" transform="translate(694,75)"/>
<path d="M0 0 C0.66 0 1.32 0 2 0 C1.9278 0.9552 1.8556 1.9104 1.7812 2.8945 C-0.6872 37.2816 5.3701 70.0298 28.3281 97 C39.6448 109.831 52.8927 119.9075 67.0674 129.3818 C77.5542 136.3922 87.7214 143.4314 97 152 C97.5759 152.5267 98.1518 153.0535 98.7451 153.5962 C115.7921 169.3598 129.0476 189.0377 130.3164 212.9219 C131.0703 236.1338 123.9257 256.154 109 274 C108.3916 274.7477 107.7831 275.4953 107.1562 276.2656 C96.9309 288.443 83.7364 296.3797 70 304 C70 303.01 70 302.02 70 301 C72.0831 299.109 74.1729 297.3665 76.375 295.625 C92.9429 281.9378 104.744 262.35 108 241 C108.278 237.5357 108.3344 234.0994 108.3125 230.625 C108.3083 229.7074 108.3041 228.7899 108.2998 227.8445 C108.184 220.8753 107.3348 214.6002 105 208 C104.7332 207.1686 104.4663 206.3371 104.1914 205.4805 C95.7299 181.6001 73.7846 166.5276 53.9946 152.5874 C23.2884 130.9504 -0.0736 105.9039 -7.3125 68 C-10.333 44.5915 -6.7575 22.3557 0 0 Z " fill="#FAF8F3" transform="translate(562,369)"/>
<path d="M0 0 C0.33 0.165 0.33 0.165 2 1 C1.2356 1.6316 0.4712 2.2633 -0.3164 2.9141 C-24.6747 23.1902 -46.3914 45.381 -61.9985 73.2158 C-62.6644 74.4021 -63.3386 75.5839 -64.021 76.7607 C-84.5976 112.2512 -93.5387 157.2822 -83.3818 197.4443 C-77.1286 220.3184 -66.6223 240.1295 -51 258 C-50.322 258.7992 -49.6439 259.5984 -48.9453 260.4219 C-44.634 265.421 -40.1012 269.8182 -35 274 C-34.4646 274.4425 -33.9291 274.8849 -33.3774 275.3408 C-25.77 281.6097 -18.0707 287.4726 -9.7876 292.832 C11.726 306.8885 33.3427 321.9894 46 345 C46 345.99 46 346.98 46 348 C45.34 348 44.68 348 44 348 C42.668 346.4609 42.668 346.4609 41.1875 344.375 C40.6487 343.6389 40.1098 342.9029 39.5547 342.1445 C39.0416 341.4368 38.5286 340.7291 38 340 C25.6122 323.3649 4.9943 313.8179 -12.8984 304.3398 C-28.7872 295.9175 -44.1668 287.6402 -58 276 C-59.0617 275.1345 -60.1243 274.27 -61.1875 273.4062 C-83.1308 255.4347 -98.4615 231.3176 -106 204 C-106.2103 203.271 -106.4206 202.5421 -106.6372 201.791 C-112.9461 179.1531 -112.0849 152.5647 -106 130 C-105.8181 129.3025 -105.6362 128.6049 -105.4487 127.8862 C-98.3337 101.2382 -84.8303 76.9095 -67 56 C-66.0192 54.8125 -65.0401 53.6237 -64.0625 52.4336 C-63.0629 51.2263 -62.0629 50.0192 -61.0625 48.8125 C-60.5895 48.2348 -60.1165 47.6572 -59.6292 47.062 C-58.4634 45.6699 -57.2365 44.3295 -56 43 C-55.34 43 -54.68 43 -54 43 C-53.7551 42.4212 -53.5102 41.8424 -53.2578 41.2461 C-50.6474 36.5846 -46.0304 33.4211 -42 30 C-41.4241 29.5079 -40.8482 29.0158 -40.2549 28.5088 C-30.6717 20.3694 -20.6792 13.0974 -10.082 6.332 C-8.6333 5.4052 -7.1938 4.464 -5.7617 3.5117 C-5.0463 3.0438 -4.3309 2.5759 -3.5938 2.0938 C-2.9512 1.6677 -2.3086 1.2417 -1.6465 0.8027 C-1.1031 0.5378 -0.5598 0.2729 0 0 Z " fill="#FAF8F3" transform="translate(610,264)"/>
<path d="M0 0 C-0.8464 3.4868 -1.7323 6.9623 -2.625 10.4375 C-2.8609 11.4114 -3.0968 12.3853 -3.3398 13.3887 C-6.0509 23.781 -10.7175 31.3726 -20 37 C-25.0721 39.6266 -29.3927 40.5081 -35 41 C-33.3058 30.4772 -26.5429 22.9305 -19.3906 15.5312 C-17 13 -17 13 -15 10 C-24.3097 16.1784 -31.4839 22.6396 -36 33 C-36.66 33 -37.32 33 -38 33 C-38.6215 23.6079 -37.0583 18.4563 -31.8125 10.8125 C-24.7559 3.7559 -10.0796 -3.3599 0 0 Z " fill="#FAF8F3" transform="translate(596,981)"/>
<path d="M0 0 C0.7477 -0.0206 1.4953 -0.0412 2.2656 -0.0625 C8.2645 -0.1043 13.0801 0.9059 17.8125 4.875 C19.4941 8.6338 19.5364 12.2099 18.875 16.25 C17.0625 19.3125 17.0625 19.3125 14.875 21.25 C13.885 21.25 12.895 21.25 11.875 21.25 C12.4525 22.0209 13.03 22.7917 13.625 23.5859 C14.3675 24.5888 15.11 25.5917 15.875 26.625 C16.2462 27.1239 16.2462 27.1239 18.125 29.6484 C19.875 32.25 19.875 32.25 19.875 34.25 C14.8457 35.1323 14.8457 35.1323 11.875 34.25 C9.7887 31.8167 8.2633 29.3366 6.7109 26.5352 C4.875 24.25 4.875 24.25 1.6641 23.4336 C1.2039 23.4033 1.2039 23.4033 -1.125 23.25 C-1.125 26.88 -1.125 30.51 -1.125 34.25 C-3.765 34.25 -6.405 34.25 -9.125 34.25 C-9.1497 29.5686 -9.1678 24.8873 -9.1799 20.2058 C-9.185 18.6121 -9.1918 17.0183 -9.2004 15.4246 C-9.2125 13.1385 -9.2182 10.8525 -9.2227 8.5664 C-9.2278 7.8497 -9.233 7.1331 -9.2383 6.3947 C-9.2385 4.6794 -9.1869 2.9642 -9.125 1.25 C-7.0536 -0.8214 -2.8414 0.019 0 0 Z M-1.125 7.25 C-1.125 10.55 -1.125 13.85 -1.125 17.25 C7.1138 17.5731 7.1138 17.5731 10.875 15.25 C11.875 12.8125 11.875 12.8125 11.875 10.25 C10.6992 8.6016 10.6992 8.6016 8.875 7.25 C6.3945 6.957 6.3945 6.957 3.6875 7.0625 C2.0994 7.1244 0.5113 7.1862 -1.125 7.25 Z " fill="#FAF8F3" transform="translate(465.125,914.75)"/>
<path d="M0 0 C3.9211 0.5801 5.4067 2.9136 7.6836 5.9062 C8.0903 6.4167 8.0903 6.4167 10.1484 9 C13.0356 12.7859 15.8894 16.5973 18.7461 20.4062 C19.0761 13.8062 19.4061 7.2062 19.7461 0.4062 C21.7261 0.4062 23.7061 0.4062 25.7461 0.4062 C26.7461 1.4062 26.7461 1.4062 26.8596 4.5491 C26.8595 5.9403 26.8538 7.3315 26.8438 8.7227 C26.8423 9.4537 26.8409 10.1848 26.8395 10.938 C26.8338 13.2816 26.8213 15.6251 26.8086 17.9688 C26.8036 19.554 26.799 21.1393 26.7949 22.7246 C26.7839 26.6185 26.7666 30.5124 26.7461 34.4062 C23.4146 34.5686 23.4146 34.5686 19.7461 34.4062 C17.6294 32.3663 16.2258 30.7299 14.6211 28.3438 C14.4194 28.0631 14.4194 28.0631 13.3984 26.6426 C12.1602 24.9118 10.9533 23.1588 9.7461 21.4062 C8.0961 19.0963 6.4461 16.7862 4.7461 14.4062 C4.4161 21.0063 4.0861 27.6063 3.7461 34.4062 C2.7561 34.5712 2.7561 34.5712 -2.2539 35.4062 C-3.9588 33.7013 -3.382 31.5609 -3.3929 29.2872 C-3.3908 28.5737 -3.3888 27.8602 -3.3867 27.125 C-3.3877 26.3963 -3.3886 25.6676 -3.3896 24.9169 C-3.3903 23.3735 -3.3884 21.83 -3.3843 20.2866 C-3.3789 17.9163 -3.3842 15.5461 -3.3906 13.1758 C-3.39 11.6797 -3.3887 10.1836 -3.3867 8.6875 C-3.3887 7.974 -3.3908 7.2604 -3.3929 6.5253 C-3.3645 0.6064 -3.3645 0.6064 0 0 Z " fill="#FAF8F3" transform="translate(541.25390625,914.59375)"/>
<path d="M0 0 C0.7477 -0.0206 1.4953 -0.0412 2.2656 -0.0625 C7.5563 -0.0994 11.1849 0.7645 15.875 3.25 C18.3892 6.1697 18.8384 7.9085 19.25 11.75 C18.6915 16.9622 16.5201 19.6968 12.875 23.25 C13.3803 23.9603 13.8856 24.6705 14.4062 25.4023 C15.0559 26.3214 15.7056 27.2405 16.375 28.1875 C17.0247 29.104 17.6744 30.0205 18.3438 30.9648 C19.875 33.25 19.875 33.25 19.875 34.25 C14.8424 35.1329 14.8424 35.1329 11.875 34.25 C9.8298 31.8192 8.2744 29.2502 6.6172 26.543 C4.875 24.25 4.875 24.25 2.8828 23.3633 C0.9375 23.125 0.9375 23.125 -2.125 23.25 C-2.125 26.88 -2.125 30.51 -2.125 34.25 C-2.95 34.415 -2.95 34.415 -7.125 35.25 C-9.5658 32.8092 -9.3612 31.5012 -9.3772 28.1702 C-9.3701 27.4836 -9.3629 26.7971 -9.3555 26.0898 C-9.355 25.3848 -9.3546 24.6797 -9.3541 23.9533 C-9.3511 22.4629 -9.3432 20.9725 -9.3308 19.4822 C-9.3125 17.1931 -9.3103 14.9044 -9.3105 12.6152 C-9.3056 11.1693 -9.2998 9.7233 -9.293 8.2773 C-9.2919 7.5888 -9.2907 6.9003 -9.2896 6.1909 C-9.2163 -1.0958 -6.4913 0.0434 0 0 Z M-2.125 7.25 C-2.125 10.55 -2.125 13.85 -2.125 17.25 C7.4464 17.6786 7.4464 17.6786 11.875 14.25 C11.5 11.3125 11.5 11.3125 10.875 8.25 C8.2304 6.9277 6.1974 7.1532 3.25 7.1875 C2.7486 7.192 2.7486 7.192 0.2109 7.2148 C-0.1745 7.2206 -0.1745 7.2206 -2.125 7.25 Z " fill="#FAF8F3" transform="translate(767.125,914.75)"/>
<path d="M0 0 C20.5294 0 20.5294 0 27.375 6.125 C30.1134 10.9698 31.4261 15.8999 30.6602 21.4727 C29.1301 26.8958 26.8796 29.9617 22 33 C14.1459 36.0855 9.2146 34.6582 0 34 C0 22.78 0 11.56 0 0 Z M7 7 C7 13.93 7 20.86 7 28 C17 28 17 28 20.0625 26.125 C23.3063 22.5673 23.3305 19.9259 23.293 15.2617 C22.8634 11.9458 21.3908 10.2501 19 8 C17 7 17 7 7 7 Z " fill="#FAF8F3" transform="translate(349,915)"/>
<path d="M0 0 C4.7521 2.7655 7.3992 5.7145 9.3086 10.9219 C10.2139 17.078 9.7004 21.5835 6.6211 27.0469 C2.3885 31.4996 -1.2789 34.1479 -7.5664 34.3594 C-12.5574 34.2862 -16.3586 33.0212 -20.3789 30.0469 C-24.613 24.7271 -25.8063 20.346 -25.7188 13.6836 C-25.0654 8.6142 -22.5851 5.0754 -18.875 1.6641 C-13.3722 -2.1283 -6.1307 -2.4563 0 0 Z M-17.3789 11.0469 C-18.9337 14.1564 -18.6654 16.6095 -18.3789 20.0469 C-15.302 25.5853 -15.302 25.5853 -12.3789 27.0469 C-7.6327 27.6996 -4.3961 27.7462 -0.3789 24.9844 C2.0435 21.4265 2.6211 19.3494 2.6211 15.0469 C1.5279 10.9474 0.242 8.4608 -3.3789 6.0469 C-9.7117 4.9202 -13.3502 5.7593 -17.3789 11.0469 Z " fill="#FAF8F3" transform="translate(314.37890625,915.953125)"/>
<path d="M0 0 C8.5238 0.1995 15.6547 2.0964 22.1133 7.8984 C27.5342 13.7571 29.2891 18.8363 29.125 26.875 C29.107 28.0274 29.0889 29.1798 29.0703 30.3672 C29.0471 31.236 29.0239 32.1048 29 33 C20.3065 31.8064 13.673 29.4427 7.8125 22.6875 C3.7337 16.8877 0 7.135 0 0 Z " fill="#FAF8F3" transform="translate(526,989)"/>
<path d="M0 0 C1.03 -0.0013 2.0599 -0.0026 3.1211 -0.0039 C3.6631 -0.002 3.6631 -0.002 6.4062 0.0078 C7.4904 0.0039 8.5745 0.0001 9.6914 -0.0039 C10.7214 -0.0026 11.7513 -0.0013 12.8125 0 C13.2885 0.0006 13.2885 0.0006 15.6973 0.0034 C17.9062 0.1328 17.9062 0.1328 18.9062 1.1328 C18.9062 3.1128 18.9062 5.0928 18.9062 7.1328 C12.9663 7.1328 7.0263 7.1328 0.9062 7.1328 C0.9062 9.4428 0.9062 11.7528 0.9062 14.1328 C6.1862 14.1328 11.4663 14.1328 16.9062 14.1328 C16.9062 16.1128 16.9062 18.0928 16.9062 20.1328 C11.6263 20.1328 6.3462 20.1328 0.9062 20.1328 C0.9062 22.7728 0.9062 25.4128 0.9062 28.1328 C6.8462 28.1328 12.7862 28.1328 18.9062 28.1328 C19.2362 29.7828 19.5663 31.4328 19.9062 33.1328 C18.9062 34.1328 18.9062 34.1328 16.4978 34.2463 C15.4557 34.2411 14.4135 34.2359 13.3398 34.2305 C12.2151 34.2272 11.0904 34.224 9.9316 34.2207 C8.7476 34.2123 7.5636 34.2039 6.3438 34.1953 C5.1559 34.1908 3.968 34.1863 2.7441 34.1816 C-0.2019 34.1698 -3.1478 34.1533 -6.0938 34.1328 C-6.1184 29.4514 -6.1366 24.7701 -6.1487 20.0886 C-6.1537 18.4949 -6.1606 16.9011 -6.1692 15.3074 C-6.1813 13.0213 -6.187 10.7353 -6.1914 8.4492 C-6.1966 7.7325 -6.2017 7.0159 -6.207 6.2775 C-6.2072 4.5622 -6.1557 2.847 -6.0938 1.1328 C-4.4086 -0.5524 -2.3061 0.0027 0 0 Z " fill="#FAF8F3" transform="translate(411.09375,914.8671875)"/>
<path d="M0 0 C1.98 0 3.96 0 6 0 C9.5265 6.877 12.7696 13.834 15.8125 20.9375 C16.0158 21.4032 16.0158 21.4032 17.0449 23.7598 C17.4284 24.6524 17.8119 25.5451 18.207 26.4648 C18.5523 27.2653 18.8975 28.0657 19.2532 28.8904 C20 31 20 31 20 34 C17.69 34 15.38 34 13 34 C12.6532 33.028 12.3065 32.0561 11.9492 31.0547 C10 28 10 28 6.6445 27.1953 C5.38 27.1721 4.1154 27.1489 2.8125 27.125 C1.5402 27.0863 0.2679 27.0477 -1.043 27.0078 C-2.0188 27.0052 -2.9946 27.0027 -4 27 C-4.99 29.31 -5.98 31.62 -7 34 C-9.64 34 -12.28 34 -15 34 C-10.5097 22.3742 -5.8387 11.0206 0 0 Z M2 10 C1.01 13.3 0.02 16.6 -1 20 C1.64 20 4.28 20 7 20 C5.7726 15.8459 4.6723 13.5631 2 10 Z " fill="#FAF8F3" transform="translate(608,915)"/>
<path d="M0 0 C2.6875 0.4375 2.6875 0.4375 4.6807 3.0771 C6.5557 6.2168 8.0672 9.2737 9.4844 12.6406 C9.9678 13.7853 10.4512 14.93 10.9492 16.1094 C11.4404 17.2902 11.9315 18.4709 12.4375 19.6875 C12.9441 20.8837 13.4507 22.08 13.9727 23.3125 C17.6875 32.164 17.6875 32.164 17.6875 34.4375 C15.3775 34.4375 13.0675 34.4375 10.6875 34.4375 C10.3511 33.4655 10.0146 32.4936 9.668 31.4922 C7.6875 28.4375 7.6875 28.4375 4.1133 27.6328 C2.743 27.5799 1.3713 27.5574 0 27.5625 C-0.3509 27.5522 -0.3509 27.5522 -2.127 27.5 C-3.855 27.453 -5.5839 27.4418 -7.3125 27.4375 C-7.9725 29.7475 -8.6325 32.0575 -9.3125 34.4375 C-11.9525 34.4375 -14.5925 34.4375 -17.3125 34.4375 C-14.3823 26.3683 -11.0822 18.5145 -7.5625 10.6875 C-7.1617 9.7939 -6.7609 8.9002 -6.3479 7.9795 C-2.9883 0.5654 -2.9883 0.5654 0 0 Z M-0.3125 10.4375 C-1.3025 13.7375 -2.2925 17.0375 -3.3125 20.4375 C-0.6725 20.4375 1.9675 20.4375 4.6875 20.4375 C3.3675 17.1375 2.0475 13.8375 0.6875 10.4375 C0.3575 10.4375 0.0275 10.4375 -0.3125 10.4375 Z " fill="#FAF8F3" transform="translate(826.3125,914.5625)"/>
<path d="M0 0 C1.9995 -0.0425 4.0004 -0.0408 6 0 C7.6692 1.6692 7.1877 3.7311 7.2461 6.0234 C7.279 7.0444 7.3118 8.0653 7.3457 9.1172 C7.4067 11.2811 7.464 13.4452 7.5176 15.6094 C7.5517 16.6329 7.5859 17.6564 7.6211 18.7109 C7.6461 19.6524 7.6712 20.5939 7.697 21.564 C8 24 8 24 10 27 C17.0981 27.676 17.0981 27.676 19.5935 25.8057 C21.4844 23.3781 21.4122 21.7674 21.4766 18.7109 C21.5075 17.6874 21.5384 16.6639 21.5703 15.6094 C21.5884 14.542 21.6064 13.4747 21.625 12.375 C21.6758 10.2577 21.7303 8.1405 21.7891 6.0234 C21.8066 5.0842 21.8242 4.145 21.8423 3.1772 C22 1 22 1 23 0 C25.5 -0.125 25.5 -0.125 28 0 C30.5208 2.5208 29.2829 9.2431 29.3125 12.625 C29.3415 13.7065 29.3705 14.788 29.4004 15.9023 C29.4529 22.5132 29.0234 26.6671 25 32 C20.3259 35.3697 15.5856 35.8743 10 35 C5.1287 33.2542 2.2465 30.6551 0 26 C-0.3406 23.0457 -0.3406 23.0457 -0.293 19.8242 C-0.2833 18.6673 -0.2736 17.5104 -0.2637 16.3184 C-0.2385 15.1202 -0.2134 13.922 -0.1875 12.6875 C-0.174 11.47 -0.1604 10.2525 -0.1465 8.998 C-0.1112 5.9982 -0.0619 2.9994 0 0 Z " fill="#FAF8F3" transform="translate(702,915)"/>
<path d="M0 0 C0.7083 -0.0206 1.4167 -0.0412 2.1465 -0.0625 C6.931 -0.0978 10.193 0.572 14.3125 3.25 C17.1331 6.1183 17.7439 8.201 17.75 12.1875 C17.6334 15.6291 17.3623 17.1581 15.6875 20.25 C10.6178 24.5192 5.6306 24.4679 -0.6875 24.25 C-0.7481 24.9603 -0.8087 25.6705 -0.8711 26.4023 C-0.913 26.8619 -0.913 26.8619 -1.125 29.1875 C-1.2062 30.104 -1.2874 31.0205 -1.3711 31.9648 C-1.6875 34.25 -1.6875 34.25 -2.6875 35.25 C-5.1875 35.375 -5.1875 35.375 -7.6875 35.25 C-9.3924 33.5451 -8.8155 31.4047 -8.8264 29.131 C-8.8244 28.4174 -8.8224 27.7039 -8.8203 26.9688 C-8.8213 26.2401 -8.8222 25.5114 -8.8232 24.7606 C-8.8239 23.2172 -8.822 21.6738 -8.8179 20.1304 C-8.8125 17.76 -8.8178 15.3899 -8.8242 13.0195 C-8.8236 11.5234 -8.8223 10.0273 -8.8203 8.5312 C-8.8223 7.8177 -8.8244 7.1042 -8.8264 6.369 C-8.7917 -0.8676 -6.5233 0.0462 0 0 Z M-1.6875 7.25 C-1.6875 10.55 -1.6875 13.85 -1.6875 17.25 C-0.8831 17.2706 -0.8831 17.2706 3.1875 17.375 C4.0924 17.3982 4.9973 17.4214 5.9297 17.4453 C8.3125 17.25 8.3125 17.25 10.3125 15.25 C10.5625 12.25 10.5625 12.25 10.3125 9.25 C8.3125 7.25 8.3125 7.25 5.9297 7.0547 C5.0248 7.0779 4.1198 7.1011 3.1875 7.125 C1.5788 7.1662 -0.03 7.2075 -1.6875 7.25 Z " fill="#FAF8F3" transform="translate(248.6875,914.75)"/>
<path d="M0 0 C3.8136 3.2332 5.8314 5.2462 6.3125 10.25 C5.8789 15.4529 3.7232 18.0853 0.3125 21.875 C-3.4278 23.6946 -6.9358 23.7313 -11 23 C-13.9356 21.6845 -14.83 20.604 -17 18 C-18.495 13.8866 -18.2987 10.8629 -16.875 6.75 C-12.3763 0.1519 -7.7576 -1.8725 0 0 Z " fill="#FAF8F3" transform="translate(447,685)"/>
<path d="M0 0 C3.1851 2.4235 4.6946 4.0633 5.9375 7.875 C6.0144 11.7224 5.4541 14.4309 4 18 C-0.2229 22.0118 -3.0915 23.3463 -8.9609 23.293 C-12.1313 22.8375 -13.8192 21.2468 -16 19 C-17.8658 15.2684 -17.5546 11.0633 -17 7 C-15.3211 3.5724 -12.8881 1.5376 -9.625 -0.4375 C-6.0259 -1.2087 -3.559 -0.9533 0 0 Z " fill="#FAF8F3" transform="translate(760,685)"/>
<path d="M0 0 C1.1259 0.0052 2.2518 0.0105 3.4119 0.0159 C4.6268 0.0191 5.8417 0.0223 7.0935 0.0256 C8.3729 0.034 9.6523 0.0424 10.9705 0.051 C12.2537 0.0555 13.537 0.06 14.8591 0.0647 C18.0421 0.0765 21.225 0.093 24.408 0.1135 C24.408 2.4235 24.408 4.7335 24.408 7.1135 C21.108 7.1135 17.808 7.1135 14.408 7.1135 C14.408 16.0235 14.408 24.9335 14.408 34.1135 C13.418 34.2785 13.418 34.2785 8.408 35.1135 C6.0727 31.6107 6.223 30.4572 6.4314 26.3518 C6.483 25.2335 6.5345 24.1153 6.5876 22.9631 C6.6521 21.7959 6.7166 20.6286 6.783 19.426 C6.8397 18.2472 6.8964 17.0683 6.9548 15.8538 C7.0964 12.9397 7.2478 10.0266 7.408 7.1135 C6.6977 7.1251 5.9874 7.1367 5.2556 7.1487 C4.3365 7.1577 3.4174 7.1667 2.4705 7.176 C1.5539 7.1876 0.6374 7.1992 -0.3069 7.2112 C-2.592 7.1135 -2.592 7.1135 -3.592 6.1135 C-3.717 3.6135 -3.717 3.6135 -3.592 1.1135 C-2.592 0.1135 -2.592 0.1135 0 0 Z " fill="#FAF8F3" transform="translate(651.592041015625,914.886474609375)"/>
<path d="M0 0 C40.92 0 81.84 0 124 0 C124 0.99 124 1.98 124 3 C83.08 3 42.16 3 0 3 C0 2.01 0 1.02 0 0 Z " fill="#FAF8F3" transform="translate(377,1006)"/>
<path d="M0 0 C40.59 0 81.18 0 123 0 C123 0.99 123 1.98 123 3 C82.41 3 41.82 3 0 3 C0 2.01 0 1.02 0 0 Z " fill="#FAF8F3" transform="translate(618,1006)"/>
<path d="M0 0 C2.5 0.125 2.5 0.125 3.5 1.125 C3.5876 3.1246 3.607 5.1274 3.5977 7.1289 C3.5944 8.3438 3.5912 9.5588 3.5879 10.8105 C3.5795 12.0899 3.5711 13.3693 3.5625 14.6875 C3.558 15.9708 3.5535 17.254 3.5488 18.5762 C3.537 21.7592 3.5205 24.9421 3.5 28.125 C4.6434 28.1134 5.7868 28.1018 6.9648 28.0898 C8.4557 28.0805 9.9466 28.0714 11.4375 28.0625 C12.1922 28.0541 12.947 28.0457 13.7246 28.0371 C15.6499 28.0285 17.5754 28.0728 19.5 28.125 C20.5 29.125 20.5 29.125 20.5625 31.6875 C20.5419 32.4919 20.5213 33.2962 20.5 34.125 C17.4516 35.034 14.9034 35.1867 11.7344 35.0039 C10.8449 34.9556 9.9555 34.9072 9.0391 34.8574 C8.1187 34.8013 7.1983 34.7453 6.25 34.6875 C5.3141 34.6353 4.3783 34.5831 3.4141 34.5293 C1.109 34.3999 -1.1956 34.265 -3.5 34.125 C-3.5247 29.4436 -3.5428 24.7623 -3.5549 20.0808 C-3.56 18.4871 -3.5668 16.8933 -3.5754 15.2996 C-3.5875 13.0135 -3.5932 10.7275 -3.5977 8.4414 C-3.6028 7.7247 -3.608 7.0081 -3.6133 6.2697 C-3.6135 4.5544 -3.5619 2.8392 -3.5 1.125 C-2.5 0.125 -2.5 0.125 0 0 Z " fill="#FAF8F3" transform="translate(872.5,914.875)"/>
<path d="M0 0 C34.65 0 69.3 0 105 0 C105.165 0.495 105.165 0.495 106 3 C71.02 3 36.04 3 0 3 C0 2.01 0 1.02 0 0 Z " fill="#FAF8F3" transform="translate(90,931)"/>
<path d="M0 0 C33.99 0 67.98 0 103 0 C103.165 0.495 103.165 0.495 104 3 C69.35 3 34.7 3 -1 3 C-0.67 2.01 -0.34 1.02 0 0 Z " fill="#FAF8F3" transform="translate(926,931)"/>
</svg>
