<?xml version="1.0" encoding="UTF-8"?>
<!-- Generator: visioncortex VTracer 0.6.12 -->
<svg version="1.1" xmlns="http://www.w3.org/2000/svg" width="533" height="533">
<path d="M0 0 C14.892 14.3987 22.612 40.9911 23.168 61.2344 C23.1825 62.7395 23.1888 64.2448 23.1875 65.75 C23.1881 66.5442 23.1888 67.3384 23.1895 68.1567 C23.1425 73.4009 22.578 78.2578 21.4453 83.3867 C20.6209 88.2245 20.8464 93.1097 21 98 C28.0004 99.5379 34.268 99.7618 41 97 C39.4789 100.8719 37.4822 102.7511 34 105 C30.7109 106.1837 27.385 107.1324 24 108 C30.5385 121.2017 38.1824 131.5958 48.9336 141.8086 C52.0341 145.0967 53.0202 146.8917 52.9375 151.4375 C50.9814 158.8706 44.6533 161.6486 38.4258 165.4492 C36 167 36 167 34 169 C33.3099 173.8305 34.1272 176.5334 36.625 180.5625 C39.0301 184.6167 39.0301 184.6167 38.75 188.1875 C36.4237 191.9262 33.4917 194.3672 30 197 C30.495 197.6394 30.99 198.2788 31.5 198.9375 C33.498 203.0168 33.8968 206.533 33 211 C30.8125 213.375 30.8125 213.375 28 215 C23.0323 217.9355 23.0323 217.9355 22 220 C21.6497 225.2642 22.0182 230.4576 22.625 235.6875 C23.1304 241.1321 22.9846 245.3014 19.6211 249.875 C14.6297 255.4339 9.5125 257.6453 2.1145 258.2268 C-8.9995 258.4263 -19.3468 256.2642 -30.1758 253.9907 C-46.6175 250.5742 -63.4505 247.4484 -78.25 257.125 C-90.6278 270.0654 -92.5838 286.3918 -92.332 303.4492 C-91.5947 324.0905 -83.9652 344.2087 -72.2148 361.1016 C-71 363 -71 363 -71 365 C-90.0742 358.5594 -106.9786 336.5509 -117 320 C-117.3759 319.3883 -117.7518 318.7767 -118.1392 318.1465 C-133.0075 293.5486 -136.9883 263.2688 -130.5908 235.3364 C-127.0867 221.4792 -121.9719 208.4622 -115 196 C-114.6468 195.3637 -114.2936 194.7274 -113.9297 194.0718 C-108.6985 184.7503 -102.6896 176.3212 -96 168 C-95.3207 167.1273 -94.6413 166.2546 -93.9414 165.3555 C-89.7197 159.9616 -85.2395 154.8647 -80.5898 149.8359 C-78.5819 147.6372 -76.618 145.4171 -74.668 143.168 C-71.0166 138.9801 -67.2087 134.9578 -63.375 130.9375 C-35.1247 101.0568 -2.1817 63.2688 -0.6836 19.8242 C-0.6417 18.6673 -0.5998 17.5104 -0.5566 16.3184 C-0.5173 15.1202 -0.478 13.922 -0.4375 12.6875 C-0.4159 12.0787 -0.4159 12.0787 -0.3066 8.998 C-0.2008 5.9988 -0.0987 2.9995 0 0 Z " fill="#D2B05F" transform="translate(422,130)"/>
<path d="M0 0 C17.2482 6.8601 32.0837 39.7273 39.0664 55.5664 C51.7638 85.9143 55.1186 120.9913 42.8247 152.0537 C37.8238 163.8557 31.2578 174.2384 23 184 C22.1853 184.9668 21.3706 185.9336 20.5312 186.9297 C14.8867 193.378 8.7717 198.7702 2 204 C0.8861 204.8794 -0.2271 205.7597 -1.3398 206.6406 C-15.815 218 -15.815 218 -20 218 C-18.6762 214.5732 -17.1959 211.3012 -15.5312 208.0273 C3.2591 170.4591 14.286 131.2005 13 89 C12.9405 89.6212 12.8811 90.2423 12.8198 90.8823 C7.2004 147.5212 -16.2575 217.8093 -59 258 C-58.844 256.9352 -58.688 255.8705 -58.5273 254.7734 C-55.758 234.7041 -59.6153 217.5213 -65.5625 198.4375 C-76.0799 164.1857 -74.4315 130.4034 -57.8125 98.375 C-50.72 85.2247 -41.4776 73.535 -32.2957 61.8054 C-17.4024 42.7503 -4.4083 24.2689 0 0 Z " fill="#63802F" transform="translate(303,16)"/>
<path d="M0 0 C15.1574 14.2844 25.4254 33.9553 26.6133 54.9219 C26.6787 57.6325 26.7252 60.3361 26.7383 63.0469 C26.743 63.7159 26.7476 64.3849 26.7524 65.0742 C26.7384 69.4645 26.32 73.6033 25.6133 77.9219 C22.374 76.8421 21.984 76.4286 20.1172 73.7812 C19.6473 73.1292 19.1775 72.4772 18.6934 71.8054 C18.1926 71.1014 17.6918 70.3973 17.1758 69.6719 C-3.3927 41.5598 -31.008 20.7302 -63.3867 7.9219 C-64.0467 7.9219 -64.7067 7.9219 -65.3867 7.9219 C-64.8949 8.1923 -64.4032 8.4626 -63.8965 8.7412 C-34.7266 24.897 -10.4471 45.8435 9.4258 72.6719 C9.8821 73.2858 10.3384 73.8997 10.8086 74.5322 C13.7228 78.5189 16.4061 82.4967 18.6133 86.9219 C18.2833 87.9119 17.9533 88.9019 17.6133 89.9219 C14.4264 90.571 11.2387 91.2156 8.0508 91.8594 C7.1555 92.0418 6.2603 92.2242 5.3379 92.4121 C-20.1708 97.5512 -44.8515 95.4553 -67.0117 80.7344 C-87.6981 65.6783 -99.8939 46.2269 -111.0742 23.5469 C-117.5651 10.4053 -124.9179 -4.1587 -137.7266 -12.3008 C-138.1655 -12.594 -138.1655 -12.594 -140.3867 -14.0781 C-140.3867 -14.7381 -140.3867 -15.3981 -140.3867 -16.0781 C-129.9695 -19.4677 -119.6161 -22.4468 -108.8242 -24.3906 C-107.9462 -24.5495 -107.0682 -24.7084 -106.1636 -24.8721 C-68.1709 -31.3818 -29.6724 -25.8359 0 0 Z " fill="#647F30" transform="translate(198.38671875,223.078125)"/>
<path d="M0 0 C2.8902 2.8902 3.4564 6.4037 4.5 10.25 C4.7207 11.0598 4.9413 11.8695 5.1687 12.7039 C12.5275 40.5411 8.8438 68.5436 -5.2891 93.5938 C-22.0842 121.8004 -48.929 141.4276 -76.0238 158.9354 C-79.8571 161.4142 -83.6764 163.9143 -87.4961 166.4141 C-88.2401 166.9007 -88.9841 167.3873 -89.7507 167.8887 C-103.6241 176.9793 -117.1822 186.4618 -130 197 C-130.5582 197.4552 -131.1163 197.9104 -131.6914 198.3794 C-146.3493 210.3954 -159.925 223.5737 -171 239 C-171.4194 239.5804 -171.8389 240.1608 -172.271 240.7588 C-187.5383 262.1272 -200.0063 287.6551 -203 314 C-203.99 314 -204.98 314 -206 314 C-205.2208 282.4416 -205.2208 282.4416 -200 272 C-218.7425 278.0278 -234.8141 285.3486 -250 298 C-250.9952 298.785 -251.9903 299.5701 -253.0156 300.3789 C-256.2838 303.2492 -258.9069 306.2607 -261.5625 309.6875 C-261.8009 309.9921 -261.8009 309.9921 -263.0071 311.5337 C-266.7079 316.3745 -269.649 321.3628 -272 327 C-271.2382 326.0938 -270.4763 325.1876 -269.6914 324.2539 C-254.3905 306.1475 -235.8967 287.6584 -212 282 C-212.1284 282.6022 -212.2568 283.2045 -212.3892 283.825 C-213.4827 289.097 -214.359 294.3457 -215.0381 299.686 C-217.613 319.7592 -223.5787 336.4262 -240.0195 349.3789 C-248.5937 355.4641 -257.9458 358.8639 -267.8276 362.2476 C-276.1621 365.1344 -283.2403 368.3019 -290 374 C-290.495 374.3919 -290.495 374.3919 -293 376.375 C-293.33 376.6431 -293.33 376.6431 -295 378 C-303.5504 358.0251 -300.3078 331.5695 -293.25 311.625 C-285.6072 294.4582 -271.6412 280.7599 -254.3828 273.4727 C-250.9385 272.1949 -247.529 271.0207 -244 270 C-243.3568 269.8124 -242.7135 269.6247 -242.0508 269.4314 C-235.2272 267.6605 -228.5129 267.7392 -221.5 267.8125 C-220.9141 267.8128 -220.9141 267.8128 -217.9492 267.8145 C-211.554 267.8468 -205.3394 268.1534 -199 269 C-198.8762 268.3426 -198.7525 267.6852 -198.625 267.0078 C-192.9187 240.6873 -176.6316 216.956 -158.4453 197.6562 C-156 195 -156 195 -153.9102 192.3633 C-152.1615 190.1998 -150.4309 188.4773 -148.3125 186.6875 C-146.1943 184.8829 -144.0888 183.0819 -142.043 181.1953 C-124.9127 165.4079 -104.6468 153.33 -85 141 C-71.5672 132.5541 -58.3716 123.9539 -46 114 C-45.456 113.5657 -44.912 113.1315 -44.3516 112.6841 C-23.7666 96.1521 -7.3127 75.0632 -1 49 C-0.8234 48.2958 -0.6468 47.5915 -0.4648 46.866 C1.1625 39.7487 1.2988 32.8412 1.25 25.5625 C1.2577 24.412 1.2655 23.2615 1.2734 22.0762 C1.2586 15.5231 0.7391 9.4326 -0.6689 3.0271 C-0.7236 2.6926 -0.7236 2.6926 -1 1 C-0.67 0.67 -0.34 0.34 0 0 Z M-274 328 C-273 330 -273 330 -273 330 Z M-276 331 C-275 333 -275 333 -275 333 Z " fill="#678333" transform="translate(409,79)"/>
<path d="M0 0 C2.8902 2.8902 3.4564 6.4037 4.5 10.25 C4.6103 10.6549 4.6103 10.6549 5.1687 12.7039 C12.5275 40.5411 8.8438 68.5436 -5.2891 93.5938 C-22.0842 121.8004 -48.929 141.4276 -76.0238 158.9354 C-79.8571 161.4142 -83.6764 163.9143 -87.4961 166.4141 C-88.2401 166.9007 -88.9841 167.3873 -89.7507 167.8887 C-103.6241 176.9793 -117.1822 186.4618 -130 197 C-130.5582 197.4552 -131.1163 197.9104 -131.6914 198.3794 C-146.3493 210.3954 -159.925 223.5737 -171 239 C-171.4194 239.5804 -171.8389 240.1608 -172.271 240.7588 C-187.5383 262.1272 -200.0063 287.6551 -203 314 C-203.99 314 -204.98 314 -206 314 C-205.2208 282.4416 -205.2208 282.4416 -200 272 C-201.98 272.33 -203.96 272.66 -206 273 C-206.33 271.68 -206.66 270.36 -207 269 C-204.36 269 -201.72 269 -199 269 C-198.8762 268.3426 -198.7525 267.6852 -198.625 267.0078 C-192.9187 240.6873 -176.6316 216.956 -158.4453 197.6562 C-156 195 -156 195 -153.9102 192.3633 C-152.1615 190.1998 -150.4309 188.4773 -148.3125 186.6875 C-146.1943 184.8829 -144.0888 183.0819 -142.043 181.1953 C-124.9127 165.4079 -104.6468 153.33 -85 141 C-71.5672 132.5541 -58.3716 123.9539 -46 114 C-45.456 113.5657 -44.912 113.1315 -44.3516 112.6841 C-23.7666 96.1521 -7.3127 75.0632 -1 49 C-0.8234 48.2958 -0.6468 47.5915 -0.4648 46.866 C1.1625 39.7487 1.2988 32.8412 1.25 25.5625 C1.2577 24.412 1.2655 23.2615 1.2734 22.0762 C1.2586 15.5231 0.7391 9.4326 -0.6689 3.0271 C-0.7236 2.6926 -0.7236 2.6926 -1 1 C-0.67 0.67 -0.34 0.34 0 0 Z " fill="#C7A75A" transform="translate(409,79)"/>
<path d="M0 0 C0.33 0.165 0.33 0.165 2 1 C1.2356 1.6316 0.4712 2.2633 -0.3164 2.9141 C-24.6747 23.1902 -46.3914 45.381 -61.9985 73.2158 C-62.6644 74.4021 -63.3386 75.5839 -64.021 76.7607 C-84.5976 112.2512 -93.5387 157.2822 -83.3818 197.4443 C-77.4528 219.1325 -67.7946 238.4321 -53.0703 255.5078 C-50.5337 258.5613 -48.2801 261.7507 -46 265 C-67.8298 266.6097 -67.8298 266.6097 -74.2773 263.3359 C-76.6348 260.7107 -78.2644 258.0727 -80 255 C-80.8625 253.7796 -81.7412 252.5705 -82.6328 251.3711 C-93.3392 236.8327 -101.1963 221.4073 -106 204 C-106.2103 203.271 -106.4206 202.5421 -106.6372 201.791 C-112.9461 179.1531 -112.0849 152.5647 -106 130 C-105.8181 129.3025 -105.6362 128.6049 -105.4487 127.8862 C-98.3337 101.2382 -84.8303 76.9095 -67 56 C-66.0192 54.8125 -65.0401 53.6237 -64.0625 52.4336 C-63.0629 51.2263 -62.0629 50.0192 -61.0625 48.8125 C-60.5895 48.2348 -60.1165 47.6572 -59.6292 47.062 C-58.4634 45.6699 -57.2365 44.3295 -56 43 C-55.34 43 -54.68 43 -54 43 C-53.7551 42.4212 -53.5102 41.8424 -53.2578 41.2461 C-50.6474 36.5846 -46.0304 33.4211 -42 30 C-41.4241 29.5079 -40.8482 29.0158 -40.2549 28.5088 C-30.6717 20.3694 -20.6792 13.0974 -10.082 6.332 C-8.6333 5.4052 -7.1938 4.464 -5.7617 3.5117 C-5.0463 3.0438 -4.3309 2.5759 -3.5938 2.0938 C-2.9512 1.6677 -2.3086 1.2417 -1.6465 0.8027 C-1.1031 0.5378 -0.5598 0.2729 0 0 Z " fill="#C49E51" transform="translate(325,268)"/>
<path d="M0 0 C0.66 0 1.32 0 2 0 C1.9278 0.9552 1.8556 1.9104 1.7812 2.8945 C-0.6872 37.2816 5.3701 70.0298 28.3281 97 C39.6448 109.831 52.8927 119.9075 67.0674 129.3818 C80.3345 138.2508 93.0517 147.2878 104 159 C104 159.33 104 159.66 104 160 C98.505 160.1995 93.0122 160.3437 87.5144 160.4395 C85.6491 160.4794 83.7841 160.5338 81.9197 160.6035 C63.2791 161.2826 63.2791 161.2826 55.2263 154.1343 C54.859 153.7821 54.859 153.7821 53 152 C51.609 150.9478 50.2023 149.9158 48.7773 148.9102 C41.1654 143.2866 33.8522 137.5476 27 131 C26.5972 130.6346 26.5972 130.6346 24.5586 128.7852 C4.7025 110.1099 -7.299 82.6643 -8.2188 55.5234 C-8.6337 36.062 -5.6122 18.5669 0 0 Z " fill="#D4B365" transform="translate(277,373)"/>
<path d="M0 0 C2.8902 2.8902 3.4564 6.4037 4.5 10.25 C4.7207 11.0598 4.9413 11.8695 5.1687 12.7039 C9.2055 27.9746 12.6221 48.3811 5.9297 63.4023 C5.7763 63.666 5.7763 63.666 5 65 C4.34 62.36 3.68 59.72 3 57 C0.2161 58.392 0.021 60.1558 -1 63 C-1.66 63 -2.32 63 -3 63 C-2.8975 63.2862 -2.8975 63.2862 -2.3789 64.7344 C-1.8998 67.5991 -2.5541 68.7347 -3.9375 71.25 C-4.3178 71.9564 -4.698 72.6628 -5.0898 73.3906 C-5.3902 73.9217 -5.6905 74.4528 -6 75 C-6.66 75 -7.32 75 -8 75 C-8.165 75.33 -8.165 75.33 -9 77 C-9.6992 75.4453 -9.6992 75.4453 -10 73 C-9.0227 70.5375 -7.9811 68.2426 -6.8125 65.875 C2.1272 46.3164 3.9006 24.0798 -0.6733 3.0447 C-0.7811 2.3699 -0.8889 1.6952 -1 1 C-0.67 0.67 -0.34 0.34 0 0 Z " fill="#D3B369" transform="translate(409,79)"/>
<path d="M0 0 C0.33 1.32 0.66 2.64 1 4 C1.66 4 2.32 4 3 4 C3.6997 7.6019 4.3826 11.2068 5.0625 14.8125 C5.2617 15.8367 5.4608 16.8608 5.666 17.916 C5.8497 18.8989 6.0334 19.8818 6.2227 20.8945 C6.3955 21.8005 6.5683 22.7065 6.7463 23.6399 C7 26 7 26 6 29 C4.3447 30.0187 2.6774 31.0181 1 32 C-0.9451 34.9177 -1.4528 36.6254 -2 40 C-2.33 40 -2.66 40 -3 40 C-3.0294 36.6667 -3.0469 33.3334 -3.0625 30 C-3.0709 29.0654 -3.0793 28.1309 -3.0879 27.168 C-3.1071 21.6773 -2.8134 16.4313 -2 11 C-1.67 11 -1.34 11 -1 11 C-0.67 7.37 -0.34 3.74 0 0 Z " fill="#CDAA5F" transform="translate(273,392)"/>
<path d="M0 0 C0.66 0.33 1.32 0.66 2 1 C1.2356 1.6316 0.4712 2.2633 -0.3164 2.9141 C-7.386 8.8028 -14.2118 14.8917 -20.885 21.2271 C-24.1471 24.3155 -27.437 27.2535 -31 30 C-31.99 29.34 -32.98 28.68 -34 28 C-34.99 28.66 -35.98 29.32 -37 30 C-37.66 29.34 -38.32 28.68 -39 28 C-27.8706 17.2194 -13.8826 6.9968 0 0 Z " fill="#CDAE65" transform="translate(325,268)"/>
<path d="M0 0 C0.99 0.33 1.98 0.66 3 1 C4.0547 11.5277 1.5142 20.2226 -1.5898 30.1797 C-2.8068 34.1295 -3.5581 37.8939 -4 42 C-4.99 42 -5.98 42 -7 42 C-6.596 30.0893 -5.3517 18.6847 -3 7 C-2.34 7 -1.68 7 -1 7 C-0.67 4.69 -0.34 2.38 0 0 Z " fill="#B29D6A" transform="translate(210,351)"/>
<path d="M0 0 C0.8784 3.0972 0.9944 4.9065 0 8 C0.99 7.67 1.98 7.34 3 7 C3.33 8.65 3.66 10.3 4 12 C5.65 12 7.3 12 9 12 C5.2834 15.9856 1.418 18.9202 -3.1875 21.8125 C-3.5017 22.0158 -3.5017 22.0158 -5.0918 23.0449 C-9.7355 26 -9.7355 26 -12 26 C-10.6628 22.5709 -9.2058 19.2377 -7.6172 15.918 C-7.1725 14.9866 -6.7277 14.0553 -6.2695 13.0957 C-5.8093 12.136 -5.3491 11.1763 -4.875 10.1875 C-4.4071 9.2085 -3.9391 8.2294 -3.457 7.2207 C-2.3061 4.8131 -1.1537 2.4063 0 0 Z " fill="#748F4C" transform="translate(295,208)"/>
<path d="M0 0 C4.1695 2.0847 5.7139 3.7035 8.625 7.25 C9.0509 7.7685 9.4767 8.2871 9.9155 8.8213 C14.9134 14.9914 19.4693 21.4835 24 28 C23.34 29.32 22.68 30.64 22 32 C21.3735 31.0616 20.747 30.1231 20.1016 29.1562 C19.2764 27.9373 18.4509 26.7185 17.625 25.5 C17.2125 24.88 16.8 24.2599 16.375 23.6211 C15.301 22.0447 14.1551 20.5179 13 19 C12.34 19 11.68 19 11 19 C10.5669 17.9069 10.1338 16.8137 9.6875 15.6875 C8.4996 12.9324 7.5111 10.7787 5 9 C4.01 9 3.02 9 2 9 C2.0619 9.7219 2.1237 10.4438 2.1875 11.1875 C1.9648 14.5286 0.8718 16.2703 -1 19 C-1.99 18.67 -2.98 18.34 -4 18 C-2.68 12.06 -1.36 6.12 0 0 Z " fill="#849E55" transform="translate(303,16)"/>
<path d="M0 0 C0.66 0.33 1.32 0.66 2 1 C0.8302 3.5345 -0.4723 5.6869 -2.0625 8 C-3.7552 10.621 -4.2988 12.095 -5 15 C-5.4305 15.3738 -5.8611 15.7477 -6.3047 16.1328 C-8.8388 18.9239 -10.099 22.26 -11.5625 25.6875 C-11.8661 26.3701 -12.1696 27.0526 -12.4824 27.7559 C-14.5133 32.4414 -15.8313 37.0316 -17 42 C-18.125 44.5 -18.125 44.5 -19 46 C-19.66 46 -20.32 46 -21 46 C-21.4226 39.9719 -20.0948 35.7441 -17.6875 30.25 C-17.3386 29.4374 -16.9898 28.6248 -16.6304 27.7876 C-5.5643 2.7821 -5.5643 2.7821 0 0 Z " fill="#B29A60" transform="translate(233,300)"/>
<path d="M0 0 C0.33 0 0.66 0 1 0 C0.9895 0.8314 0.9791 1.6627 0.9683 2.5193 C0.9339 5.6448 0.909 8.7701 0.8901 11.8958 C0.8753 13.8974 0.8499 15.8989 0.8242 17.9004 C0.7889 24.9054 0.9023 31.2844 3 38 C5.4375 39.6875 5.4375 39.6875 8 40 C11.0109 37.9927 11.6302 37.1612 13 34 C14.98 34.66 16.96 35.32 19 36 C19 35.01 19 34.02 19 33 C21 34 21 34 22 36 C21.2871 36.3519 20.5743 36.7038 19.8398 37.0664 C13.5458 40.3108 8.646 43.6404 4 49 C3.34 48.67 2.68 48.34 2 48 C-2.2603 33.3039 -3.2015 14.949 0 0 Z " fill="#8FA768" transform="translate(111,408)"/>
<path d="M0 0 C0.66 0 1.32 0 2 0 C1.9278 0.8624 1.8556 1.7248 1.7812 2.6133 C0.9847 13.0899 0.8982 23.4965 1 34 C0.67 34 0.34 34 0 34 C-0.33 30.37 -0.66 26.74 -1 23 C-1.66 23 -2.32 23 -3 23 C-3.33 25.64 -3.66 28.28 -4 31 C-4.33 31 -4.66 31 -5 31 C-6.0238 37.1342 -6.3161 43.2284 -6.5625 49.4375 C-6.6057 50.4552 -6.6489 51.4729 -6.6934 52.5215 C-6.7987 55.0142 -6.9008 57.507 -7 60 C-7.33 60 -7.66 60 -8 60 C-8.5565 38.8461 -6.1135 20.2254 0 0 Z " fill="#D5B980" transform="translate(277,373)"/>
<path d="M0 0 C0.6197 0.1907 1.2394 0.3814 1.8779 0.5779 C-6.7381 7.9871 -15.8743 14.3382 -25.3096 20.6404 C-26.7533 21.6106 -28.1966 22.5813 -29.6396 23.5525 C-33.13 25.9001 -36.6247 28.2409 -40.1221 30.5779 C-40.7821 29.5879 -41.4421 28.5979 -42.1221 27.5779 C-41.1321 27.5779 -40.1421 27.5779 -39.1221 27.5779 C-39.1221 26.9179 -39.1221 26.2579 -39.1221 25.5779 C-38.1321 25.5779 -37.1421 25.5779 -36.1221 25.5779 C-35.7921 24.5879 -35.4621 23.5979 -35.1221 22.5779 C-33.3879 21.1357 -33.3879 21.1357 -31.1572 19.6599 C-30.3574 19.1282 -29.5575 18.5964 -28.7334 18.0486 C-27.8923 17.5014 -27.0512 16.9542 -26.1846 16.3904 C-25.3473 15.8316 -24.5101 15.2728 -23.6475 14.697 C-17.3958 10.5779 -17.3958 10.5779 -15.1221 10.5779 C-15.1221 9.9179 -15.1221 9.2579 -15.1221 8.5779 C-13.2939 7.1755 -13.2939 7.1755 -10.8721 5.6404 C-8.4837 4.1145 -6.2293 2.6697 -4.0752 0.824 C-2.1221 -0.4221 -2.1221 -0.4221 0 0 Z " fill="#DCC17C" transform="translate(364.1220703125,213.422119140625)"/>
<path d="M0 0 C0.66 0.33 1.32 0.66 2 1 C0.3159 5.2782 -2.8077 8.1811 -5.9375 11.4375 C-9.488 15.1325 -12.3835 18.5693 -15 23 C-16.8672 24.8438 -16.8672 24.8438 -18.875 26.5 C-22.0842 29.2059 -25.0788 31.9875 -28 35 C-28.99 34.67 -29.98 34.34 -31 34 C-26.1601 28.3826 -21.169 22.9377 -16.0625 17.5625 C-10.6055 11.7943 -5.1993 6.0032 0 0 Z " fill="#DFC47D" transform="translate(375,243)"/>
<path d="M0 0 C0.5237 0.0023 0.5237 0.0023 3.1738 0.0137 C5.7201 0.0253 8.2663 0.0416 10.8125 0.0625 C10.8125 0.3925 10.8125 0.7225 10.8125 1.0625 C10.0288 1.1863 9.245 1.31 8.4375 1.4375 C5.8125 2.0625 5.8125 2.0625 3.8125 4.0625 C1.5376 4.2737 1.5376 4.2737 -1.2734 4.2227 C-2.2866 4.2117 -3.2998 4.2007 -4.3438 4.1895 C-5.4059 4.1682 -6.4681 4.1469 -7.5625 4.125 C-9.6536 4.0905 -11.7447 4.0604 -13.8359 4.0352 C-14.7658 4.0172 -15.6957 3.9992 -16.6538 3.9807 C-19.0086 4.0567 -20.9213 4.4803 -23.1875 5.0625 C-23.5897 4.98 -23.5897 4.98 -25.625 4.5625 C-28.5409 3.9935 -30.2941 4.4569 -33.1875 5.0625 C-35.8609 5.1523 -38.5114 5.1079 -41.1875 5.0625 C-41.1875 4.7325 -41.1875 4.4025 -41.1875 4.0625 C-38.4175 3.578 -35.6467 3.0998 -32.875 2.625 C-32.1087 2.4903 -31.3423 2.3556 -30.5527 2.2168 C-20.357 0.4823 -10.3344 -0.0862 0 0 Z " fill="#8CA461" transform="translate(123.1875,195.9375)"/>
<path d="M0 0 C0.33 1.32 0.66 2.64 1 4 C1.66 4 2.32 4 3 4 C3.7913 6.8539 4.2432 9.5399 4.375 12.5 C4.3995 12.8764 4.3995 12.8764 4.5234 14.7812 C4 17 4 17 1.4883 18.7773 C-1 21 -1 21 -1.418 24.7852 C-1.3664 26.2121 -1.2888 27.6382 -1.1875 29.0625 C-0.7727 36.659 -0.7727 36.659 -3 40 C-3.0294 36.6667 -3.0469 33.3334 -3.0625 30 C-3.0709 29.0654 -3.0793 28.1309 -3.0879 27.168 C-3.1071 21.6773 -2.8134 16.4313 -2 11 C-1.67 11 -1.34 11 -1 11 C-0.67 7.37 -0.34 3.74 0 0 Z " fill="#C9A251" transform="translate(273,392)"/>
<path d="M0 0 C4.0344 1.3448 5.1267 3.9531 7.1875 7.4375 C7.5555 8.0363 7.9236 8.635 8.3027 9.252 C11 13.7207 11 13.7207 11 16 C6.9847 14.6062 4.0564 12.7205 0.75 10.0625 C-0.1214 9.3729 -0.9928 8.6832 -1.8906 7.9727 C-4 6 -4 6 -5 3 C-3.68 3 -2.36 3 -1 3 C-0.67 2.01 -0.34 1.02 0 0 Z " fill="#D1B268" transform="translate(340,479)"/>
<path d="M0 0 C0.33 0.66 0.66 1.32 1 2 C0.0056 4.3448 -1.0451 6.5146 -2.25 8.75 C-2.6019 9.4094 -2.9538 10.0689 -3.3164 10.7483 C-7.4022 18.1258 -12.5978 24.5551 -18 31 C-19.0445 27.8665 -18.9342 27.0103 -18 24 C-16.35 23.67 -14.7 23.34 -13 23 C-13 22.01 -13 21.02 -13 20 C-12.34 20 -11.68 20 -11 20 C-10.9484 19.6287 -10.9484 19.6287 -10.6875 17.75 C-9.9473 14.7892 -8.8428 13.3803 -7 11 C-6.3125 8.75 -6.3125 8.75 -6 7 C-5.34 7 -4.68 7 -4 7 C-4 5.68 -4 4.36 -4 3 C-3.34 3 -2.68 3 -2 3 C-2 2.34 -2 1.68 -2 1 C-1.34 0.67 -0.68 0.34 0 0 Z " fill="#D6BB7D" transform="translate(408,160)"/>
<path d="M0 0 C2.1421 2.1421 2.4948 3.116 3.2891 5.957 C3.5082 6.7401 3.7273 7.5232 3.9531 8.3301 C4.1748 9.1493 4.3966 9.9685 4.625 10.8125 C4.8545 11.6201 5.0839 12.4277 5.3203 13.2598 C6.419 17.2522 7.3224 20.8174 7 25 C6.01 23.68 5.02 22.36 4 21 C3.67 27.27 3.34 33.54 3 40 C2.67 40 2.34 40 2 40 C1.9802 39.2094 1.9604 38.4188 1.9399 37.6042 C1.8437 33.965 1.7344 30.3263 1.625 26.6875 C1.5941 25.4442 1.5631 24.2009 1.5312 22.9199 C1.3167 16.1072 0.7743 9.6531 -0.6821 2.9875 C-0.787 2.3317 -0.8919 1.6758 -1 1 C-0.67 0.67 -0.34 0.34 0 0 Z " fill="#DCC99E" transform="translate(409,79)"/>
<path d="M0 0 C3.6843 3.2895 5.8407 6.6013 8 11 C7.67 11.99 7.34 12.98 7 14 C5.0742 14.7656 5.0742 14.7656 2.6875 15.25 C2.2976 15.3351 2.2976 15.3351 0.3242 15.7656 C-2.0765 16.0077 -3.7181 15.731 -6 15 C-5.67 14.01 -5.34 13.02 -5 12 C-4.34 12.165 -4.34 12.165 -1 13 C-1 12.34 -1 11.68 -1 11 C-0.01 10.67 0.98 10.34 2 10 C1.67 9.67 1.34 9.34 1 9 C0.02 5.951 -0.0886 3.1888 0 0 Z " fill="#728848" transform="translate(209,299)"/>
<path d="M0 0 C1.125 6.75 1.125 6.75 0 9 C-0.3966 16.3718 0.0937 23.6848 1 31 C0.34 31 -0.32 31 -1 31 C-3.0006 24.3838 -3.2425 18.385 -3.125 11.5 C-3.116 10.4868 -3.107 9.4736 -3.0977 8.4297 C-3.0743 5.9529 -3.0415 3.4766 -3 1 C-1 0 -1 0 0 0 Z " fill="#6C8B35" transform="translate(114,414)"/>
<path d="M0 0 C0.33 0 0.66 0 1 0 C3.8272 16.0969 2.6628 33.1496 -1 49 C-1.33 49 -1.66 49 -2 49 C-2 47.02 -2 45.04 -2 43 C-2.33 43 -2.66 43 -3 43 C-3 41.02 -3 39.04 -3 37 C-2.01 37 -1.02 37 0 37 C-0.33 33.7 -0.66 30.4 -1 27 C-0.34 27 0.32 27 1 27 C0.67 18.09 0.34 9.18 0 0 Z " fill="#A4B786" transform="translate(351,106)"/>
<path d="M0 0 C0.33 0 0.66 0 1 0 C0.9884 0.6871 0.9768 1.3741 0.9648 2.082 C0.9558 2.9831 0.9468 3.8841 0.9375 4.8125 C0.9259 5.7058 0.9143 6.5991 0.9023 7.5195 C1 10 1 10 2 13 C1.625 14.875 1.625 14.875 1 17 C0.6594 18.6652 0.3244 20.3316 0 22 C-0.33 22 -0.66 22 -1 22 C-1.33 27.94 -1.66 33.88 -2 40 C-2.33 40 -2.66 40 -3 40 C-3.3762 26.2981 -2.7865 13.4351 0 0 Z " fill="#D6BD81" transform="translate(292,363)"/>
<path d="M0 0 C3.4639 3.204 5.1795 6.8809 7.25 11.0625 C7.4382 11.4289 7.4382 11.4289 8.3906 13.2832 C9.3267 15.1571 10.1711 17.0763 11 19 C10.67 19.66 10.34 20.32 10 21 C9.01 20.67 8.02 20.34 7 20 C6.8763 19.1956 6.7525 18.3912 6.625 17.5625 C6.4187 16.7169 6.2125 15.8713 6 15 C5.34 14.67 4.68 14.34 4 14 C1.5096 9.601 -0.6645 5.1501 0 0 Z " fill="#879F59" transform="translate(330,51)"/>
<path d="M0 0 C0.66 0.33 1.32 0.66 2 1 C-0.0822 2.7722 -2.1657 4.5428 -4.25 6.3125 C-4.8365 6.812 -5.423 7.3115 -6.0273 7.8262 C-8.9563 10.3108 -11.8886 12.7434 -15 15 C-15 14.34 -15 13.68 -15 13 C-16.65 13.33 -18.3 13.66 -20 14 C-16.4673 10.0511 -12.3336 7.4592 -7.875 4.6875 C-7.1467 4.2202 -6.4184 3.7529 -5.668 3.2715 C-4.9706 2.8351 -4.2732 2.3988 -3.5547 1.9492 C-2.9203 1.5505 -2.2859 1.1518 -1.6323 0.741 C-1.363 0.6187 -1.363 0.6187 0 0 Z " fill="#DDC691" transform="translate(325,268)"/>
<path d="M0 0 C-0.1212 0.5362 -0.2423 1.0725 -0.3672 1.625 C-2.0914 9.6889 -3.0457 17.8174 -4 26 C-4.33 26 -4.66 26 -5 26 C-5.1444 24.8656 -5.2887 23.7312 -5.4375 22.5625 C-6 19 -6 19 -7 18 C-5.8 7.6 -5.8 7.6 -4 4 C-3.34 4 -2.68 4 -2 4 C-2 3.34 -2 2.68 -2 2 C-2.99 1.67 -3.98 1.34 -5 1 C-2 0 -2 0 0 0 Z " fill="#788D58" transform="translate(197,361)"/>
<path d="M0 0 C0.66 0 1.32 0 2 0 C1.8066 0.5569 1.6133 1.1137 1.4141 1.6875 C0.1006 5.5368 -1.1301 9.3517 -2.0625 13.3125 C-2.7993 16.2108 -3.5094 18.4447 -5 21 C-5.66 21 -6.32 21 -7 21 C-7.5613 14.5449 -5.6346 9.8456 -3 4 C-2.34 4 -1.68 4 -1 4 C-0.67 2.68 -0.34 1.36 0 0 Z " fill="#AC8E4D" transform="translate(219,325)"/>
<path d="M0 0 C0.33 0 0.66 0 1 0 C0.5368 4.7246 -0.0989 8.1706 -3 12 C-3.66 12 -4.32 12 -5 12 C-5.2681 12.7837 -5.5362 13.5675 -5.8125 14.375 C-7 17 -7 17 -10 19 C-10.66 18.34 -11.32 17.68 -12 17 C-11.3013 16.0242 -10.6027 15.0484 -9.8828 14.043 C-8.9635 12.7578 -8.0442 11.4727 -7.125 10.1875 C-6.6648 9.5449 -6.2046 8.9023 -5.7305 8.2402 C-5.2857 7.6183 -4.841 6.9963 -4.3828 6.3555 C-3.9743 5.7847 -3.5659 5.2138 -3.145 4.6257 C-2.0714 3.1013 -1.0343 1.5514 0 0 Z " fill="#D7BB79" transform="translate(398,154)"/>
<path d="M0 0 C0.33 0 0.66 0 1 0 C1.625 3.375 1.625 3.375 2 7 C1.34 7.66 0.68 8.32 0 9 C0 9.99 0 10.98 0 12 C-0.6129 13.5843 -1.2853 15.1464 -2 16.6875 C-2.3712 17.4957 -2.7425 18.304 -3.125 19.1367 C-3.2694 19.4442 -3.2694 19.4442 -4 21 C-4.66 21 -5.32 21 -6 21 C-6.33 21.66 -6.66 22.32 -7 23 C-8.0576 19.825 -8.0039 18.2404 -6.6016 15.2148 C-6.287 14.5194 -5.9725 13.8239 -5.6484 13.1074 C-5.3107 12.3913 -4.973 11.6753 -4.625 10.9375 C-3.9705 9.5095 -3.3168 8.0812 -2.6641 6.6523 C-2.3697 6.0232 -2.0753 5.3941 -1.772 4.7458 C-1 3 -1 3 0 0 Z " fill="#D8BD7D" transform="translate(407,133)"/>
<path d="M0 0 C0.66 0.99 1.32 1.98 2 3 C1.3813 3.2475 0.7625 3.495 0.125 3.75 C-2.4425 5.2603 -2.7182 6.3609 -4 9 C-5.6245 10.7078 -7.2922 12.3755 -9 14 C-9.2681 14.2887 -9.2681 14.2887 -10.625 15.75 C-12 17 -12 17 -15 18 C-15.33 18.66 -15.66 19.32 -16 20 C-16.99 19.67 -17.98 19.34 -19 19 C-18.1312 18.215 -17.2623 17.4299 -16.3672 16.6211 C-10.558 11.3374 -4.9018 6.1623 0 0 Z " fill="#D7BE7C" transform="translate(385,172)"/>
<path d="M0 0 C0.99 0.33 1.98 0.66 3 1 C3 4.63 3 8.26 3 12 C2.67 12.165 2.67 12.165 1 13 C1 13.66 1 14.32 1 15 C0.01 15 -0.98 15 -2 15 C-2.33 15.99 -2.66 16.98 -3 18 C-2.5705 11.7489 -1.986 5.958 0 0 Z " fill="#A07E37" transform="translate(210,351)"/>
<path d="M0 0 C0.33 0 0.66 0 1 0 C1 13.86 1 27.72 1 42 C0.67 42 0.34 42 0 42 C-1.0704 35.1565 -1.3787 28.3568 -1.6125 21.447 C-1.6877 19.3072 -1.7783 17.1685 -1.8691 15.0293 C-1.9176 13.6615 -1.9652 12.2937 -2.0117 10.9258 C-2.0577 9.6926 -2.1037 8.4593 -2.1511 7.1887 C-2.0064 4.1351 -1.6211 2.5423 0 0 Z " fill="#BC903E" transform="translate(217,415)"/>
<path d="M0 0 C1 3 1 3 0.2273 4.6858 C-0.1842 5.2858 -0.5956 5.8857 -1.0195 6.5039 C-1.4649 7.162 -1.9103 7.82 -2.3691 8.498 C-2.8454 9.1793 -3.3218 9.8606 -3.8125 10.5625 C-4.2772 11.2476 -4.7419 11.9328 -5.2207 12.6387 C-7.0347 15.2907 -8.7227 17.7227 -11 20 C-12 17 -12 17 -11 14 C-10.34 14 -9.68 14 -9 14 C-8.7448 13.2743 -8.4895 12.5485 -8.2266 11.8008 C-6.932 8.8447 -5.3954 6.6944 -3.375 4.1875 C-2.7434 3.3973 -2.1117 2.6071 -1.4609 1.793 C-0.9788 1.2013 -0.4967 0.6096 0 0 Z " fill="#AE9454" transform="translate(237,315)"/>
<path d="M0 0 C0.9488 0.165 1.8975 0.33 2.875 0.5 C6 1 6 1 8 1 C9.6667 1 11.3333 1 13 1 C12.67 2.32 12.34 3.64 12 5 C13.32 5.99 14.64 6.98 16 8 C14.02 8 12.04 8 10 8 C9.67 7.01 9.34 6.02 9 5 C8.01 5.33 7.02 5.66 6 6 C3.2518 5.0839 2.231 4.3927 0.75 1.875 C0.5025 1.2562 0.255 0.6375 0 0 Z " fill="#90A564" transform="translate(117,224)"/>
<path d="M0 0 C0.33 0 0.66 0 1 0 C3.6765 12.2353 3.1979 24.548 3 37 C2.67 37 2.34 37 2 37 C1.9749 36.4046 1.9499 35.8092 1.9241 35.1958 C1.8082 32.5053 1.6854 29.8152 1.5625 27.125 C1.5232 26.1879 1.4839 25.2507 1.4434 24.2852 C1.4015 23.3893 1.3596 22.4934 1.3164 21.5703 C1.2797 20.7429 1.2431 19.9155 1.2053 19.063 C1 17 1 17 0 15 C-0.0717 12.4484 -0.0931 9.9253 -0.0625 7.375 C-0.058 6.6686 -0.0535 5.9622 -0.0488 5.2344 C-0.037 3.4895 -0.0191 1.7448 0 0 Z " fill="#9CAE7A" transform="translate(315,88)"/>
<path d="M0 0 C0.66 0 1.32 0 2 0 C2 2.97 2 5.94 2 9 C1.67 9 1.34 9 1 9 C-0.0238 15.1342 -0.3161 21.2284 -0.5625 27.4375 C-0.6057 28.4552 -0.6489 29.4729 -0.6934 30.5215 C-0.7987 33.0142 -0.9008 35.507 -1 38 C-1.33 38 -1.66 38 -2 38 C-2.2176 25.1583 -2.2431 12.6774 0 0 Z " fill="#D8C28F" transform="translate(271,395)"/>
<path d="M0 0 C0 0.99 0 1.98 0 3 C-3.5238 6.4419 -5.9503 8.5544 -11 9 C-11.33 8.01 -11.66 7.02 -12 6 C-11.34 5.67 -10.68 5.34 -10 5 C-11.32 4.34 -12.64 3.68 -14 3 C-13.157 2.8672 -12.3139 2.7345 -11.4453 2.5977 C-10.3496 2.4211 -9.2539 2.2445 -8.125 2.0625 C-7.5797 1.9755 -7.5797 1.9755 -4.8203 1.5352 C-2 1 -2 1 0 0 Z " fill="#D5B97C" transform="translate(462,227)"/>
<path d="M0 0 C1 3 1 3 1 5 C0.34 5 -0.32 5 -1 5 C-1.66 10.28 -2.32 15.56 -3 21 C-3.66 20.34 -4.32 19.68 -5 19 C-5.66 19.99 -6.32 20.98 -7 22 C-6.4221 16.8907 -5.2819 12.4839 -3.5 7.625 C-3.0566 6.4004 -2.6131 5.1758 -2.1562 3.9141 C-1 1 -1 1 0 0 Z " fill="#869E5E" transform="translate(119,385)"/>
<path d="M0 0 C0.66 0.33 1.32 0.66 2 1 C1.8144 1.5981 1.6288 2.1963 1.4375 2.8125 C1 5 1 5 2 8 C1.01 8.66 0.02 9.32 -1 10 C-1.99 9.34 -2.98 8.68 -4 8 C-4.99 8.66 -5.98 9.32 -7 10 C-7.66 9.34 -8.32 8.68 -9 8 C-6.03 5.36 -3.06 2.72 0 0 Z " fill="#D1B36F" transform="translate(295,288)"/>
<path d="M0 0 C0.33 0.99 0.66 1.98 1 3 C-0.8125 5.6875 -0.8125 5.6875 -3 8 C-3.66 8 -4.32 8 -5 8 C-5.1031 8.5981 -5.2063 9.1963 -5.3125 9.8125 C-6.0888 12.2824 -7.0709 13.3225 -9 15 C-9.5835 11.6655 -9.4612 9.6646 -7.5117 6.8555 C-2.7362 1.3681 -2.7362 1.3681 0 0 Z " fill="#B39552" transform="translate(246,283)"/>
<path d="M0 0 C6.27 0 12.54 0 19 0 C19.33 0.99 19.66 1.98 20 3 C17.7919 3.0544 15.5835 3.093 13.375 3.125 C12.1452 3.1482 10.9155 3.1714 9.6484 3.1953 C6.0568 3.003 3.3334 2.3026 0 1 C0 0.67 0 0.34 0 0 Z " fill="#D2B572" transform="translate(407,385)"/>
<path d="M0 0 C4.3542 -0.0292 8.7083 -0.0469 13.0625 -0.0625 C14.2916 -0.0709 15.5207 -0.0793 16.7871 -0.0879 C22.6279 -0.1036 28.252 -0.0847 34 1 C34 1.33 34 1.66 34 2 C32.02 2 30.04 2 28 2 C28 2.66 28 3.32 28 4 C26.68 3.67 25.36 3.34 24 3 C24 3.66 24 4.32 24 5 C23.34 4.67 22.68 4.34 22 4 C22.33 3.34 22.66 2.68 23 2 C19.205 1.835 19.205 1.835 0 1 C0 0.67 0 0.34 0 0 Z " fill="#4C6C1D" transform="translate(175,348)"/>
<path d="M0 0 C0 0.33 0 0.66 0 1 C-5.7191 1.8254 -11.2267 2.1275 -17 2.0625 C-17.3874 2.0602 -17.3874 2.0602 -19.3477 2.0488 C-21.2318 2.0372 -23.1159 2.0193 -25 2 C-25.33 1.34 -25.66 0.68 -26 0 C-17.1776 -0.9386 -8.8224 -0.9386 0 0 Z " fill="#556F23" transform="translate(193,315)"/>
<path d="M0 0 C2.31 0 4.62 0 7 0 C7 0.66 7 1.32 7 2 C8.32 2.66 9.64 3.32 11 4 C9.5645 4.5056 8.1265 5.0043 6.6875 5.5 C6.2872 5.6392 6.2872 5.6392 4.2617 6.3438 C2 7 2 7 -1 7 C-0.67 4.69 -0.34 2.38 0 0 Z " fill="#698241" transform="translate(192,349)"/>
<path d="M0 0 C3.5821 3.5821 2.8692 9.1296 3 14 C2.8207 17.0529 2.4543 19.9712 2 23 C1.34 23 0.68 23 0 23 C0 15.41 0 7.82 0 0 Z " fill="#4F6B22" transform="translate(247,243)"/>
<path d="M0 0 C2 3 2 3 1.75 5.0625 C1 7 1 7 -1 9 C-1.3094 9.7837 -1.6187 10.5675 -1.9375 11.375 C-3.0005 14.0013 -4.1219 15.8871 -6 18 C-6.66 18 -7.32 18 -8 18 C-6.6515 13.6403 -4.9509 9.6866 -2.875 5.625 C-2.3362 4.5654 -1.7973 3.5058 -1.2422 2.4141 C-0.8323 1.6174 -0.4223 0.8208 0 0 Z " fill="#839C54" transform="translate(298,35)"/>
<path d="M0 0 C2.3625 2.3625 3.0378 4.3123 4.1875 7.4375 C4.5523 8.4056 4.9171 9.3737 5.293 10.3711 C6 13 6 13 5 16 C4.34 16.66 3.68 17.32 3 18 C2.491 16.1274 1.9932 14.2518 1.5 12.375 C1.3608 11.8529 1.3608 11.8529 0.6562 9.2109 C0.0088 6.0431 -0.1161 3.2226 0 0 Z " fill="#8BA361" transform="translate(341,72)"/>
<path d="M0 0 C0.66 0.33 1.32 0.66 2 1 C0.8302 3.5345 -0.4723 5.6869 -2.0625 8 C-3.6902 10.5203 -4.5534 12.0972 -5 15 C-5.66 15 -6.32 15 -7 15 C-6.6008 13.2459 -6.1798 11.4968 -5.75 9.75 C-5.518 8.7755 -5.2859 7.8009 -5.0469 6.7969 C-3.882 3.6848 -2.4867 2.1579 0 0 Z " fill="#AE8F4B" transform="translate(233,300)"/>
<path d="M0 0 C1.2078 3.6233 0.5431 4.6415 -1 8 C-1.99 8 -2.98 8 -4 8 C-4.1237 8.7837 -4.2475 9.5675 -4.375 10.375 C-5 13 -5 13 -7 15 C-7.99 14.67 -8.98 14.34 -10 14 C-6.7 9.38 -3.4 4.76 0 0 Z " fill="#DCC382" transform="translate(400,210)"/>
<path d="M0 0 C0.99 0.33 1.98 0.66 3 1 C1.4545 6.4793 -1.1554 11.1143 -4 16 C-5.0625 14.125 -5.0625 14.125 -6 12 C-5.67 11.34 -5.34 10.68 -5 10 C-4.01 10 -3.02 10 -2 10 C-2.0412 9.0925 -2.0825 8.185 -2.125 7.25 C-2.0047 4.1218 -1.6085 2.6139 0 0 Z " fill="#819C59" transform="translate(340,171)"/>
<path d="M0 0 C2.9184 2.6266 4.9452 5.6698 7 9 C7 9.66 7 10.32 7 11 C2.5654 9.6063 0.1262 7.3942 -3 4 C-2.01 4 -1.02 4 0 4 C0 2.68 0 1.36 0 0 Z " fill="#D1BA81" transform="translate(344,484)"/>
<path d="M0 0 C0.33 0.99 0.66 1.98 1 3 C-5.6336 8.8798 -5.6336 8.8798 -9 9 C-9.66 8.34 -10.32 7.68 -11 7 C-7.37 4.69 -3.74 2.38 0 0 Z " fill="#D6BD7A" transform="translate(329,217)"/>
<path d="M0 0 C0.33 0.99 0.66 1.98 1 3 C-3.3945 7.0039 -3.3945 7.0039 -5 8 C-5.99 7.67 -6.98 7.34 -8 7 C-8.66 8.32 -9.32 9.64 -10 11 C-10.99 11 -11.98 11 -13 11 C-11.639 6.9171 -9.5205 6.1131 -5.9375 3.8125 C-4.8328 3.0971 -3.728 2.3816 -2.5898 1.6445 C-1.7352 1.1018 -0.8805 0.5591 0 0 Z " fill="#DBC27A" transform="translate(350,203)"/>
<path d="M0 0 C0.99 0.66 1.98 1.32 3 2 C0.03 4.97 -2.94 7.94 -6 11 C-6.99 10.67 -7.98 10.34 -9 10 C-8.0641 8.8945 -7.1262 7.7906 -6.1875 6.6875 C-5.6654 6.0726 -5.1434 5.4577 -4.6055 4.8242 C-3.1283 3.1458 -1.5996 1.5612 0 0 Z " fill="#E0C584" transform="translate(382,195)"/>
<path d="M0 0 C-4.9757 1.4513 -9.9664 2.7637 -15 4 C-15 5.32 -15 6.64 -15 8 C-15.825 7.67 -15.825 7.67 -20 6 C-20 5.34 -20 4.68 -20 4 C-17.4203 3.1331 -14.8372 2.2813 -12.25 1.4375 C-11.5204 1.1906 -10.7908 0.9438 -10.0391 0.6895 C-9.3301 0.4606 -8.6211 0.2318 -7.8906 -0.0039 C-7.5659 -0.1113 -7.5659 -0.1113 -5.9229 -0.6545 C-3.6656 -1.0601 -2.1653 -0.693 0 0 Z " fill="#8FA56D" transform="translate(78,203)"/>
<path d="M0 0 C0.2784 0.1237 0.2784 0.1237 1.6875 0.75 C-1.4715 4.1798 -3.8873 6.2749 -8.3125 7.75 C-9.653 8.4021 -10.9891 9.0638 -12.3125 9.75 C-4.196 -0.4536 -4.196 -0.4536 0 0 Z " fill="#7C9254" transform="translate(165.3125,379.25)"/>
<path d="M0 0 C-1.3949 4.4384 -3.519 6.9435 -7 10 C-7.99 10.33 -8.98 10.66 -10 11 C-9.4011 7.699 -8.3031 5.7857 -6.125 3.25 C-5.612 2.6364 -5.0989 2.0228 -4.5703 1.3906 C-3 0 -3 0 0 0 Z " fill="#B69A56" transform="translate(260,269)"/>
<path d="M0 0 C2.64 0.33 5.28 0.66 8 1 C8.33 2.32 8.66 3.64 9 5 C6.0434 6.4783 3.2577 6.0603 0 6 C0.1856 5.3812 0.3712 4.7625 0.5625 4.125 C1 2 1 2 0 0 Z " fill="#C9A14E" transform="translate(444,230)"/>
<path d="M0 0 C0.99 0.66 1.98 1.32 3 2 C0.69 4.97 -1.62 7.94 -4 11 C-4.99 10.67 -5.98 10.34 -7 10 C-5.3325 6.0586 -2.7729 3.2107 0 0 Z " fill="#D8BD78" transform="translate(389,226)"/>
</svg>
